<svg xmlns="http://www.w3.org/2000/svg" xmlns:xlink="http://www.w3.org/1999/xlink" xmlns:s="https://github.com/nturley/netlistsvg" width="361" height="229">
  <style>svg {
    stroke:#000;
    fill:none;
  }
  text {
    fill:#000;
    stroke:none;
    font-size:10px;
    font-weight: bold;
    font-family: "Courier New", monospace;
  }
  .nodelabel {
    text-anchor: middle;
  }
  .inputPortLabel {
    text-anchor: end;
  }
  .splitjoinBody {
    fill:#000;
  }</style>
  <g s:type="and" transform="translate(124,12)" s:width="30" s:height="25" id="cell_$abc$92$auto$blifparse.cc:396:parse_blif$93">
    <s:alias val="$and"/>
    <s:alias val="$logic_and"/>
    <s:alias val="$_AND_"/>
    <path d="M0,0 L0,25 L15,25 A15 12.5 0 0 0 15,0 Z" class="cell_$abc$92$auto$blifparse.cc:396:parse_blif$93"/>
    <g s:x="0" s:y="5" s:pid="A"/>
    <g s:x="0" s:y="20" s:pid="B"/>
    <g s:x="30" s:y="12.5" s:pid="Y"/>
  </g>
  <g s:type="and" transform="translate(124,72)" s:width="30" s:height="25" id="cell_$abc$92$auto$blifparse.cc:396:parse_blif$94">
    <s:alias val="$and"/>
    <s:alias val="$logic_and"/>
    <s:alias val="$_AND_"/>
    <path d="M0,0 L0,25 L15,25 A15 12.5 0 0 0 15,0 Z" class="cell_$abc$92$auto$blifparse.cc:396:parse_blif$94"/>
    <g s:x="0" s:y="5" s:pid="A"/>
    <g s:x="0" s:y="20" s:pid="B"/>
    <g s:x="30" s:y="12.5" s:pid="Y"/>
  </g>
  <g s:type="and" transform="translate(189,64.5)" s:width="30" s:height="25" id="cell_$abc$92$auto$blifparse.cc:396:parse_blif$95">
    <s:alias val="$and"/>
    <s:alias val="$logic_and"/>
    <s:alias val="$_AND_"/>
    <path d="M0,0 L0,25 L15,25 A15 12.5 0 0 0 15,0 Z" class="cell_$abc$92$auto$blifparse.cc:396:parse_blif$95"/>
    <g s:x="0" s:y="5" s:pid="A"/>
    <g s:x="0" s:y="20" s:pid="B"/>
    <g s:x="30" s:y="12.5" s:pid="Y"/>
  </g>
  <g s:type="and" transform="translate(124,132)" s:width="30" s:height="25" id="cell_$abc$92$auto$blifparse.cc:396:parse_blif$96">
    <s:alias val="$and"/>
    <s:alias val="$logic_and"/>
    <s:alias val="$_AND_"/>
    <path d="M0,0 L0,25 L15,25 A15 12.5 0 0 0 15,0 Z" class="cell_$abc$92$auto$blifparse.cc:396:parse_blif$96"/>
    <g s:x="0" s:y="5" s:pid="A"/>
    <g s:x="0" s:y="20" s:pid="B"/>
    <g s:x="30" s:y="12.5" s:pid="Y"/>
  </g>
  <g s:type="and" transform="translate(124,192)" s:width="30" s:height="25" id="cell_$abc$92$auto$blifparse.cc:396:parse_blif$97">
    <s:alias val="$and"/>
    <s:alias val="$logic_and"/>
    <s:alias val="$_AND_"/>
    <path d="M0,0 L0,25 L15,25 A15 12.5 0 0 0 15,0 Z" class="cell_$abc$92$auto$blifparse.cc:396:parse_blif$97"/>
    <g s:x="0" s:y="5" s:pid="A"/>
    <g s:x="0" s:y="20" s:pid="B"/>
    <g s:x="30" s:y="12.5" s:pid="Y"/>
  </g>
  <g s:type="and" transform="translate(189,184.5)" s:width="30" s:height="25" id="cell_$abc$92$auto$blifparse.cc:396:parse_blif$98">
    <s:alias val="$and"/>
    <s:alias val="$logic_and"/>
    <s:alias val="$_AND_"/>
    <path d="M0,0 L0,25 L15,25 A15 12.5 0 0 0 15,0 Z" class="cell_$abc$92$auto$blifparse.cc:396:parse_blif$98"/>
    <g s:x="0" s:y="5" s:pid="A"/>
    <g s:x="0" s:y="20" s:pid="B"/>
    <g s:x="30" s:y="12.5" s:pid="Y"/>
  </g>
  <g s:type="and" transform="translate(254,177)" s:width="30" s:height="25" id="cell_$abc$92$auto$blifparse.cc:396:parse_blif$99">
    <s:alias val="$and"/>
    <s:alias val="$logic_and"/>
    <s:alias val="$_AND_"/>
    <path d="M0,0 L0,25 L15,25 A15 12.5 0 0 0 15,0 Z" class="cell_$abc$92$auto$blifparse.cc:396:parse_blif$99"/>
    <g s:x="0" s:y="5" s:pid="A"/>
    <g s:x="0" s:y="20" s:pid="B"/>
    <g s:x="30" s:y="12.5" s:pid="Y"/>
  </g>
  <g s:type="inputExt" transform="translate(12,52)" s:width="30" s:height="20" id="cell_a">
    <text x="15" y="-4" class="nodelabel cell_a" s:attribute="ref">a</text>
    <s:alias val="$_inputExt_"/>
    <path d="M0,0 L0,20 L15,20 L30,10 L15,0 Z" class="cell_a"/>
    <g s:x="28" s:y="10" s:pid="Y"/>
  </g>
  <g s:type="outputExt" transform="translate(319,179.5)" s:width="30" s:height="20" id="cell_y">
    <text x="15" y="-4" class="nodelabel cell_y" s:attribute="ref">y</text>
    <s:alias val="$_outputExt_"/>
    <path d="M30,0 L30,20 L15,20 L0,10 L15,0 Z" class="cell_y"/>
    <g s:x="0" s:y="10" s:pid="A"/>
  </g>
  <g s:type="split" transform="translate(77,41.5)" s:width="5" s:height="40" id="cell_$split$,2,3,4,5,6,7,8,9,">
    <rect width="5" height="160" class="splitjoinBody" s:generic="body"/>
    <s:alias val="$_split_"/>
    <g s:x="0" s:y="20" s:pid="in"/>
    <g transform="translate(4,10)" s:x="4" s:y="10" s:pid="out0">
      <text x="5" y="-4">4</text>
    </g>
    <g transform="translate(4,30)" s:x="4" s:y="10" s:pid="out0">
      <text x="5" y="-4">5</text>
    </g>
    <g transform="translate(4,50)" s:x="4" s:y="10" s:pid="out0">
      <text x="5" y="-4">6</text>
    </g>
    <g transform="translate(4,70)" s:x="4" s:y="10" s:pid="out0">
      <text x="5" y="-4">7</text>
    </g>
    <g transform="translate(4,90)" s:x="4" s:y="10" s:pid="out0">
      <text x="5" y="-4">0</text>
    </g>
    <g transform="translate(4,110)" s:x="4" s:y="10" s:pid="out0">
      <text x="5" y="-4">1</text>
    </g>
    <g transform="translate(4,130)" s:x="4" s:y="10" s:pid="out0">
      <text x="5" y="-4">2</text>
    </g>
    <g transform="translate(4,150)" s:x="4" s:y="10" s:pid="out0">
      <text x="5" y="-4">3</text>
    </g>
  </g>
  <line x1="81.5" x2="81.5" y1="51.5" y2="17" class="net_6"/>
  <line x1="81.5" x2="124" y1="17" y2="17" class="net_6"/>
  <line x1="82" x2="99" y1="72" y2="72" class="net_7"/>
  <line x1="99" x2="99" y1="72" y2="32" class="net_7"/>
  <line x1="99" x2="124" y1="32" y2="32" class="net_7"/>
  <line x1="82" x2="99" y1="92" y2="92" class="net_8"/>
  <line x1="99" x2="99" y1="92" y2="77" class="net_8"/>
  <line x1="99" x2="124" y1="77" y2="77" class="net_8"/>
  <line x1="82" x2="109" y1="112" y2="112" class="net_9"/>
  <line x1="109" x2="109" y1="112" y2="92" class="net_9"/>
  <line x1="109" x2="124" y1="92" y2="92" class="net_9"/>
  <line x1="154" x2="164" y1="24.5" y2="24.5" class="net_11"/>
  <line x1="164" x2="164" y1="24.5" y2="69.5" class="net_11"/>
  <line x1="164" x2="189" y1="69.5" y2="69.5" class="net_11"/>
  <line x1="154" x2="189" y1="84.5" y2="84.5" class="net_12"/>
  <line x1="82" x2="99" y1="132" y2="132" class="net_2"/>
  <line x1="99" x2="99" y1="132" y2="137" class="net_2"/>
  <line x1="99" x2="124" y1="137" y2="137" class="net_2"/>
  <line x1="82" x2="124" y1="152" y2="152" class="net_3"/>
  <line x1="82" x2="99" y1="172" y2="172" class="net_4"/>
  <line x1="99" x2="99" y1="172" y2="197" class="net_4"/>
  <line x1="99" x2="124" y1="197" y2="197" class="net_4"/>
  <line x1="81.5" x2="81.5" y1="192.5" y2="212" class="net_5"/>
  <line x1="81.5" x2="124" y1="212" y2="212" class="net_5"/>
  <line x1="154" x2="164" y1="144.5" y2="144.5" class="net_14"/>
  <line x1="164" x2="164" y1="144.5" y2="189.5" class="net_14"/>
  <line x1="164" x2="189" y1="189.5" y2="189.5" class="net_14"/>
  <line x1="154" x2="189" y1="204.5" y2="204.5" class="net_15"/>
  <line x1="219" x2="229" y1="77" y2="77" class="net_13"/>
  <line x1="229" x2="229" y1="77" y2="182" class="net_13"/>
  <line x1="229" x2="254" y1="182" y2="182" class="net_13"/>
  <line x1="219" x2="254" y1="197" y2="197" class="net_16"/>
  <line x1="284" x2="319" y1="189.5" y2="189.5" class="net_10"/>
  <line x1="40" x2="77" y1="62" y2="62" class="net_2,3,4,5,6,7,8,9"/>
</svg>
