<svg xmlns="http://www.w3.org/2000/svg" xmlns:xlink="http://www.w3.org/1999/xlink" xmlns:s="https://github.com/nturley/netlistsvg" width="376" height="186.5">
  <style>svg {
    stroke:#000;
    fill:none;
  }
  text {
    fill:#000;
    stroke:none;
    font-size:10px;
    font-weight: bold;
    font-family: "Courier New", monospace;
  }
  .nodelabel {
    text-anchor: middle;
  }
  .inputPortLabel {
    text-anchor: end;
  }
  .splitjoinBody {
    fill:#000;
  }</style>
  <g s:type="and" transform="translate(269,102)" s:width="30" s:height="25" id="cell_$abc$105$auto$blifparse.cc:396:parse_blif$106">
    <s:alias val="$and"/>
    <s:alias val="$logic_and"/>
    <s:alias val="$_AND_"/>
    <path d="M0,0 L0,25 L15,25 A15 12.5 0 0 0 15,0 Z" class="cell_$abc$105$auto$blifparse.cc:396:parse_blif$106"/>
    <g s:x="0" s:y="5" s:pid="A"/>
    <g s:x="0" s:y="20" s:pid="B"/>
    <g s:x="30" s:y="12.5" s:pid="Y"/>
  </g>
  <g s:type="generic" transform="translate(84,111.5)" s:width="30" s:height="40" id="cell_$auto$ff.cc:266:slice$104">
    <text x="15" y="-4" class="nodelabel cell_$auto$ff.cc:266:slice$104" s:attribute="ref">$_DFF_PP0_</text>
    <rect width="30" height="60" s:generic="body" class="cell_$auto$ff.cc:266:slice$104"/>
    <g transform="translate(0,10)" s:x="0" s:y="10" s:pid="in0" id="port_$auto$ff.cc:266:slice$104~C">
      <text x="-3" y="-4" class="inputPortLabel cell_$auto$ff.cc:266:slice$104">C</text>
    </g>
    <g transform="translate(0,30)" s:x="0" s:y="10" s:pid="in0" id="port_$auto$ff.cc:266:slice$104~D">
      <text x="-3" y="-4" class="inputPortLabel cell_$auto$ff.cc:266:slice$104">D</text>
    </g>
    <g transform="translate(0,50)" s:x="0" s:y="10" s:pid="in0" id="port_$auto$ff.cc:266:slice$104~R">
      <text x="-3" y="-4" class="inputPortLabel cell_$auto$ff.cc:266:slice$104">R</text>
    </g>
    <g transform="translate(30,10)" s:x="30" s:y="10" s:pid="out0" id="port_$auto$ff.cc:266:slice$104~Q">
      <text x="5" y="-4" style="fill:#000; stroke:none" class="cell_$auto$ff.cc:266:slice$104">Q</text>
    </g>
  </g>
  <g s:type="inputExt" transform="translate(12,22)" s:width="30" s:height="20" id="cell_clk">
    <text x="15" y="-4" class="nodelabel cell_clk" s:attribute="ref">clk</text>
    <s:alias val="$_inputExt_"/>
    <path d="M0,0 L0,20 L15,20 L30,10 L15,0 Z" class="cell_clk"/>
    <g s:x="28" s:y="10" s:pid="Y"/>
  </g>
  <g s:type="inputExt" transform="translate(12,152)" s:width="30" s:height="20" id="cell_reset">
    <text x="15" y="-4" class="nodelabel cell_reset" s:attribute="ref">reset</text>
    <s:alias val="$_inputExt_"/>
    <path d="M0,0 L0,20 L15,20 L30,10 L15,0 Z" class="cell_reset"/>
    <g s:x="28" s:y="10" s:pid="Y"/>
  </g>
  <g s:type="inputExt" transform="translate(84,46.5)" s:width="30" s:height="20" id="cell_a">
    <text x="15" y="-4" class="nodelabel cell_a" s:attribute="ref">a</text>
    <s:alias val="$_inputExt_"/>
    <path d="M0,0 L0,20 L15,20 L30,10 L15,0 Z" class="cell_a"/>
    <g s:x="28" s:y="10" s:pid="Y"/>
  </g>
  <g s:type="outputExt" transform="translate(334,104.5)" s:width="30" s:height="20" id="cell_y">
    <text x="15" y="-4" class="nodelabel cell_y" s:attribute="ref">y</text>
    <s:alias val="$_outputExt_"/>
    <path d="M30,0 L30,20 L15,20 L0,10 L15,0 Z" class="cell_y"/>
    <g s:x="0" s:y="10" s:pid="A"/>
  </g>
  <g s:type="constant" transform="translate(12,87)" s:width="30" s:height="20" id="cell_1">
    <text x="15" y="-4" class="nodelabel cell_1" s:attribute="ref">1</text>
    <s:alias val="$_constant_"/>
    <rect width="30" height="20" class="cell_1"/>
    <g s:x="30" s:y="10" s:pid="Y"/>
  </g>
  <line x1="112" x2="244" y1="56.5" y2="56.5" class="net_4"/>
  <line x1="244" x2="244" y1="56.5" y2="107" class="net_4"/>
  <line x1="244" x2="269" y1="107" y2="107" class="net_4"/>
  <line x1="115" x2="269" y1="122" y2="122" class="net_6"/>
  <line x1="40" x2="62" y1="32" y2="32" class="net_2"/>
  <line x1="62" x2="62" y1="32" y2="122" class="net_2"/>
  <line x1="62" x2="84" y1="122" y2="122" class="net_2"/>
  <line x1="42" x2="52" y1="97" y2="97" class="net_7"/>
  <line x1="52" x2="52" y1="97" y2="142" class="net_7"/>
  <line x1="52" x2="84" y1="142" y2="142" class="net_7"/>
  <line x1="40" x2="84" y1="162" y2="162" class="net_3"/>
  <line x1="299" x2="334" y1="114.5" y2="114.5" class="net_5"/>
</svg>
