<svg xmlns="http://www.w3.org/2000/svg" xmlns:xlink="http://www.w3.org/1999/xlink" xmlns:s="https://github.com/nturley/netlistsvg" width="456" height="265.5">
  <style>svg {
    stroke:#000;
    fill:none;
  }
  text {
    fill:#000;
    stroke:none;
    font-size:10px;
    font-weight: bold;
    font-family: "Courier New", monospace;
  }
  .nodelabel {
    text-anchor: middle;
  }
  .inputPortLabel {
    text-anchor: end;
  }
  .splitjoinBody {
    fill:#000;
  }</style>
  <g s:type="not" transform="translate(339,32.5)" s:width="30" s:height="20" id="cell_$abc$165$auto$blifparse.cc:396:parse_blif$166">
    <s:alias val="$_NOT_"/>
    <s:alias val="$not"/>
    <s:alias val="$logic_not"/>
    <path d="M0,0 L0,20 L20,10 Z" class="cell_$abc$165$auto$blifparse.cc:396:parse_blif$166"/>
    <circle cx="23" cy="10" r="3" class="cell_$abc$165$auto$blifparse.cc:396:parse_blif$166"/>
    <g s:x="0" s:y="10" s:pid="A"/>
    <g s:x="25" s:y="10" s:pid="Y"/>
  </g>
  <g s:type="not" transform="translate(274,222.5)" s:width="30" s:height="20" id="cell_$abc$165$auto$blifparse.cc:396:parse_blif$167">
    <s:alias val="$_NOT_"/>
    <s:alias val="$not"/>
    <s:alias val="$logic_not"/>
    <path d="M0,0 L0,20 L20,10 Z" class="cell_$abc$165$auto$blifparse.cc:396:parse_blif$167"/>
    <circle cx="23" cy="10" r="3" class="cell_$abc$165$auto$blifparse.cc:396:parse_blif$167"/>
    <g s:x="0" s:y="10" s:pid="A"/>
    <g s:x="25" s:y="10" s:pid="Y"/>
  </g>
  <g s:type="and" transform="translate(339,212.5)" s:width="30" s:height="25" id="cell_$abc$165$auto$blifparse.cc:396:parse_blif$168">
    <s:alias val="$and"/>
    <s:alias val="$logic_and"/>
    <s:alias val="$_AND_"/>
    <path d="M0,0 L0,25 L15,25 A15 12.5 0 0 0 15,0 Z" class="cell_$abc$165$auto$blifparse.cc:396:parse_blif$168"/>
    <g s:x="0" s:y="5" s:pid="A"/>
    <g s:x="0" s:y="20" s:pid="B"/>
    <g s:x="30" s:y="12.5" s:pid="Y"/>
  </g>
  <g s:type="and" transform="translate(274,155)" s:width="30" s:height="25" id="cell_$abc$165$auto$blifparse.cc:396:parse_blif$169">
    <s:alias val="$and"/>
    <s:alias val="$logic_and"/>
    <s:alias val="$_AND_"/>
    <path d="M0,0 L0,25 L15,25 A15 12.5 0 0 0 15,0 Z" class="cell_$abc$165$auto$blifparse.cc:396:parse_blif$169"/>
    <g s:x="0" s:y="5" s:pid="A"/>
    <g s:x="0" s:y="20" s:pid="B"/>
    <g s:x="30" s:y="12.5" s:pid="Y"/>
  </g>
  <g s:type="or" transform="translate(339,147.5)" s:width="30" s:height="25" id="cell_$abc$165$auto$blifparse.cc:396:parse_blif$170">
    <s:alias val="$or"/>
    <s:alias val="$logic_or"/>
    <s:alias val="$_OR_"/>
    <path d="M0,25 L0,25 L15,25 A15 12.5 0 0 0 15,0 L0,0" class="cell_$abc$165$auto$blifparse.cc:396:parse_blif$170"/>
    <path d="M0,0 A30 25 0 0 1 0,25" class="cell_$abc$165$auto$blifparse.cc:396:parse_blif$170"/>
    <g s:x="3" s:y="5" s:pid="A"/>
    <g s:x="3" s:y="20" s:pid="B"/>
    <g s:x="30" s:y="12.5" s:pid="Y"/>
  </g>
  <g s:type="not" transform="translate(404,150)" s:width="30" s:height="20" id="cell_$abc$165$auto$blifparse.cc:396:parse_blif$171">
    <s:alias val="$_NOT_"/>
    <s:alias val="$not"/>
    <s:alias val="$logic_not"/>
    <path d="M0,0 L0,20 L20,10 Z" class="cell_$abc$165$auto$blifparse.cc:396:parse_blif$171"/>
    <circle cx="23" cy="10" r="3" class="cell_$abc$165$auto$blifparse.cc:396:parse_blif$171"/>
    <g s:x="0" s:y="10" s:pid="A"/>
    <g s:x="25" s:y="10" s:pid="Y"/>
  </g>
  <g s:type="and" transform="translate(339,87.5)" s:width="30" s:height="25" id="cell_$abc$165$auto$blifparse.cc:396:parse_blif$172">
    <s:alias val="$and"/>
    <s:alias val="$logic_and"/>
    <s:alias val="$_AND_"/>
    <path d="M0,0 L0,25 L15,25 A15 12.5 0 0 0 15,0 Z" class="cell_$abc$165$auto$blifparse.cc:396:parse_blif$172"/>
    <g s:x="0" s:y="5" s:pid="A"/>
    <g s:x="0" s:y="20" s:pid="B"/>
    <g s:x="30" s:y="12.5" s:pid="Y"/>
  </g>
  <g s:type="and" transform="translate(404,80)" s:width="30" s:height="25" id="cell_$abc$165$auto$blifparse.cc:396:parse_blif$173">
    <s:alias val="$and"/>
    <s:alias val="$logic_and"/>
    <s:alias val="$_AND_"/>
    <path d="M0,0 L0,25 L15,25 A15 12.5 0 0 0 15,0 Z" class="cell_$abc$165$auto$blifparse.cc:396:parse_blif$173"/>
    <g s:x="0" s:y="5" s:pid="A"/>
    <g s:x="0" s:y="20" s:pid="B"/>
    <g s:x="30" s:y="12.5" s:pid="Y"/>
  </g>
  <g s:type="generic" transform="translate(89,164.5)" s:width="30" s:height="40" id="cell_$auto$ff.cc:266:slice$147">
    <text x="15" y="-4" class="nodelabel cell_$auto$ff.cc:266:slice$147" s:attribute="ref">$_DFF_PP0_</text>
    <rect width="30" height="60" s:generic="body" class="cell_$auto$ff.cc:266:slice$147"/>
    <g transform="translate(0,10)" s:x="0" s:y="10" s:pid="in0" id="port_$auto$ff.cc:266:slice$147~C">
      <text x="-3" y="-4" class="inputPortLabel cell_$auto$ff.cc:266:slice$147">C</text>
    </g>
    <g transform="translate(0,30)" s:x="0" s:y="10" s:pid="in0" id="port_$auto$ff.cc:266:slice$147~D">
      <text x="-3" y="-4" class="inputPortLabel cell_$auto$ff.cc:266:slice$147">D</text>
    </g>
    <g transform="translate(0,50)" s:x="0" s:y="10" s:pid="in0" id="port_$auto$ff.cc:266:slice$147~R">
      <text x="-3" y="-4" class="inputPortLabel cell_$auto$ff.cc:266:slice$147">R</text>
    </g>
    <g transform="translate(30,10)" s:x="30" s:y="10" s:pid="out0" id="port_$auto$ff.cc:266:slice$147~Q">
      <text x="5" y="-4" style="fill:#000; stroke:none" class="cell_$auto$ff.cc:266:slice$147">Q</text>
    </g>
  </g>
  <g s:type="generic" transform="translate(89,32)" s:width="30" s:height="40" id="cell_$auto$ff.cc:266:slice$148">
    <text x="15" y="-4" class="nodelabel cell_$auto$ff.cc:266:slice$148" s:attribute="ref">$_DFF_PP0_</text>
    <rect width="30" height="60" s:generic="body" class="cell_$auto$ff.cc:266:slice$148"/>
    <g transform="translate(0,10)" s:x="0" s:y="10" s:pid="in0" id="port_$auto$ff.cc:266:slice$148~C">
      <text x="-3" y="-4" class="inputPortLabel cell_$auto$ff.cc:266:slice$148">C</text>
    </g>
    <g transform="translate(0,30)" s:x="0" s:y="10" s:pid="in0" id="port_$auto$ff.cc:266:slice$148~D">
      <text x="-3" y="-4" class="inputPortLabel cell_$auto$ff.cc:266:slice$148">D</text>
    </g>
    <g transform="translate(0,50)" s:x="0" s:y="10" s:pid="in0" id="port_$auto$ff.cc:266:slice$148~R">
      <text x="-3" y="-4" class="inputPortLabel cell_$auto$ff.cc:266:slice$148">R</text>
    </g>
    <g transform="translate(30,10)" s:x="30" s:y="10" s:pid="out0" id="port_$auto$ff.cc:266:slice$148~Q">
      <text x="5" y="-4" style="fill:#000; stroke:none" class="cell_$auto$ff.cc:266:slice$148">Q</text>
    </g>
  </g>
  <g s:type="inputExt" transform="translate(12,32.5)" s:width="30" s:height="20" id="cell_clk">
    <text x="15" y="-4" class="nodelabel cell_clk" s:attribute="ref">clk</text>
    <s:alias val="$_inputExt_"/>
    <path d="M0,0 L0,20 L15,20 L30,10 L15,0 Z" class="cell_clk"/>
    <g s:x="28" s:y="10" s:pid="Y"/>
  </g>
  <g s:type="inputExt" transform="translate(12,205)" s:width="30" s:height="20" id="cell_reset">
    <text x="15" y="-4" class="nodelabel cell_reset" s:attribute="ref">reset</text>
    <s:alias val="$_inputExt_"/>
    <path d="M0,0 L0,20 L15,20 L30,10 L15,0 Z" class="cell_reset"/>
    <g s:x="28" s:y="10" s:pid="Y"/>
  </g>
  <g s:type="inputExt" transform="translate(274,97.5)" s:width="30" s:height="20" id="cell_a">
    <text x="15" y="-4" class="nodelabel cell_a" s:attribute="ref">a</text>
    <s:alias val="$_inputExt_"/>
    <path d="M0,0 L0,20 L15,20 L30,10 L15,0 Z" class="cell_a"/>
    <g s:x="28" s:y="10" s:pid="Y"/>
  </g>
  <g s:type="outputExt" transform="translate(404,215)" s:width="30" s:height="20" id="cell_y">
    <text x="15" y="-4" class="nodelabel cell_y" s:attribute="ref">y</text>
    <s:alias val="$_outputExt_"/>
    <path d="M30,0 L30,20 L15,20 L0,10 L15,0 Z" class="cell_y"/>
    <g s:x="0" s:y="10" s:pid="A"/>
  </g>
  <line x1="120" x2="339" y1="42.5" y2="42.5" class="net_6"/>
  <line x1="120" x2="259" y1="42.5" y2="42.5" class="net_6"/>
  <line x1="259" x2="259" y1="42.5" y2="211.5" class="net_6"/>
  <line x1="259" x2="314" y1="211.5" y2="211.5" class="net_6"/>
  <line x1="314" x2="314" y1="211.5" y2="217.5" class="net_6"/>
  <circle cx="259" cy="42.5" r="2" style="fill:#000" class="net_6"/>
  <line x1="314" x2="339" y1="217.5" y2="217.5" class="net_6"/>
  <line x1="120" x2="259" y1="42.5" y2="42.5" class="net_6"/>
  <line x1="259" x2="259" y1="42.5" y2="160" class="net_6"/>
  <circle cx="259" cy="160" r="2" style="fill:#000" class="net_6"/>
  <line x1="259" x2="274" y1="160" y2="160" class="net_6"/>
  <line x1="120" x2="249" y1="175" y2="175" class="net_8"/>
  <line x1="249" x2="249" y1="175" y2="232.5" class="net_8"/>
  <circle cx="249" cy="175" r="2" style="fill:#000" class="net_8"/>
  <line x1="249" x2="274" y1="232.5" y2="232.5" class="net_8"/>
  <line x1="120" x2="274" y1="175" y2="175" class="net_8"/>
  <line x1="120" x2="249" y1="175" y2="175" class="net_8"/>
  <line x1="249" x2="249" y1="175" y2="76.5" class="net_8"/>
  <line x1="249" x2="314" y1="76.5" y2="76.5" class="net_8"/>
  <line x1="314" x2="314" y1="76.5" y2="92.5" class="net_8"/>
  <line x1="314" x2="339" y1="92.5" y2="92.5" class="net_8"/>
  <line x1="299" x2="339" y1="232.5" y2="232.5" class="net_9"/>
  <line x1="302" x2="314" y1="107.5" y2="107.5" class="net_4"/>
  <line x1="314" x2="314" y1="107.5" y2="152.5" class="net_4"/>
  <circle cx="314" cy="107.5" r="2" style="fill:#000" class="net_4"/>
  <line x1="314" x2="342" y1="152.5" y2="152.5" class="net_4"/>
  <line x1="302" x2="339" y1="107.5" y2="107.5" class="net_4"/>
  <line x1="304" x2="342" y1="167.5" y2="167.5" class="net_10"/>
  <line x1="369" x2="404" y1="160" y2="160" class="net_11"/>
  <line x1="364" x2="379" y1="42.5" y2="42.5" class="net_7"/>
  <line x1="379" x2="379" y1="42.5" y2="85" class="net_7"/>
  <line x1="379" x2="404" y1="85" y2="85" class="net_7"/>
  <line x1="369" x2="404" y1="100" y2="100" class="net_13"/>
  <line x1="40" x2="52" y1="42.5" y2="42.5" class="net_2"/>
  <line x1="52" x2="52" y1="42.5" y2="175" class="net_2"/>
  <circle cx="52" cy="42.5" r="2" style="fill:#000" class="net_2"/>
  <line x1="52" x2="89" y1="175" y2="175" class="net_2"/>
  <line x1="40" x2="89" y1="42.5" y2="42.5" class="net_2"/>
  <line x1="429" x2="444" y1="160" y2="160" class="net_12"/>
  <line x1="444" x2="444" y1="160" y2="252.5" class="net_12"/>
  <line x1="444" x2="72" y1="252.5" y2="252.5" class="net_12"/>
  <line x1="72" x2="72" y1="252.5" y2="195" class="net_12"/>
  <line x1="72" x2="89" y1="195" y2="195" class="net_12"/>
  <line x1="40" x2="89" y1="215" y2="215" class="net_3"/>
  <line x1="40" x2="62" y1="215" y2="215" class="net_3"/>
  <line x1="62" x2="62" y1="215" y2="82.5" class="net_3"/>
  <circle cx="62" cy="215" r="2" style="fill:#000" class="net_3"/>
  <line x1="62" x2="89" y1="82.5" y2="82.5" class="net_3"/>
  <line x1="434" x2="444" y1="92.5" y2="92.5" class="net_14"/>
  <line x1="444" x2="444" y1="92.5" y2="12" class="net_14"/>
  <line x1="444" x2="72" y1="12" y2="12" class="net_14"/>
  <line x1="72" x2="72" y1="12" y2="62.5" class="net_14"/>
  <line x1="72" x2="89" y1="62.5" y2="62.5" class="net_14"/>
  <line x1="369" x2="404" y1="225" y2="225" class="net_5"/>
</svg>
