<svg xmlns="http://www.w3.org/2000/svg" xmlns:xlink="http://www.w3.org/1999/xlink" xmlns:s="https://github.com/nturley/netlistsvg" width="616" height="560">
  <style>svg {
    stroke:#000;
    fill:none;
  }
  text {
    fill:#000;
    stroke:none;
    font-size:10px;
    font-weight: bold;
    font-family: "Courier New", monospace;
  }
  .nodelabel {
    text-anchor: middle;
  }
  .inputPortLabel {
    text-anchor: end;
  }
  .splitjoinBody {
    fill:#000;
  }</style>
  <g s:type="not" transform="translate(129,254.5)" s:width="30" s:height="20" id="cell_$abc$332$auto$blifparse.cc:396:parse_blif$333">
    <s:alias val="$_NOT_"/>
    <s:alias val="$not"/>
    <s:alias val="$logic_not"/>
    <path d="M0,0 L0,20 L20,10 Z" class="cell_$abc$332$auto$blifparse.cc:396:parse_blif$333"/>
    <circle cx="23" cy="10" r="3" class="cell_$abc$332$auto$blifparse.cc:396:parse_blif$333"/>
    <g s:x="0" s:y="10" s:pid="A"/>
    <g s:x="25" s:y="10" s:pid="Y"/>
  </g>
  <g s:type="not" transform="translate(129,329.5)" s:width="30" s:height="20" id="cell_$abc$332$auto$blifparse.cc:396:parse_blif$334">
    <s:alias val="$_NOT_"/>
    <s:alias val="$not"/>
    <s:alias val="$logic_not"/>
    <path d="M0,0 L0,20 L20,10 Z" class="cell_$abc$332$auto$blifparse.cc:396:parse_blif$334"/>
    <circle cx="23" cy="10" r="3" class="cell_$abc$332$auto$blifparse.cc:396:parse_blif$334"/>
    <g s:x="0" s:y="10" s:pid="A"/>
    <g s:x="25" s:y="10" s:pid="Y"/>
  </g>
  <g s:type="not" transform="translate(270,187)" s:width="30" s:height="20" id="cell_$abc$332$auto$blifparse.cc:396:parse_blif$335">
    <s:alias val="$_NOT_"/>
    <s:alias val="$not"/>
    <s:alias val="$logic_not"/>
    <path d="M0,0 L0,20 L20,10 Z" class="cell_$abc$332$auto$blifparse.cc:396:parse_blif$335"/>
    <circle cx="23" cy="10" r="3" class="cell_$abc$332$auto$blifparse.cc:396:parse_blif$335"/>
    <g s:x="0" s:y="10" s:pid="A"/>
    <g s:x="25" s:y="10" s:pid="Y"/>
  </g>
  <g s:type="nand" transform="translate(199,259.5)" s:width="30" s:height="25" id="cell_$abc$332$auto$blifparse.cc:396:parse_blif$336">
    <s:alias val="$nand"/>
    <s:alias val="$logic_nand"/>
    <s:alias val="$_NAND_"/>
    <s:alias val="$_ANDNOT_"/>
    <path d="M0,0 L0,25 L15,25 A15 12.5 0 0 0 15,0 Z" class="cell_$abc$332$auto$blifparse.cc:396:parse_blif$336"/>
    <circle cx="34" cy="12.5" r="3" class="cell_$abc$332$auto$blifparse.cc:396:parse_blif$336"/>
    <g s:x="0" s:y="5" s:pid="A"/>
    <g s:x="0" s:y="20" s:pid="B"/>
    <g s:x="36" s:y="12.5" s:pid="Y"/>
  </g>
  <g s:type="not" transform="translate(270,262)" s:width="30" s:height="20" id="cell_$abc$332$auto$blifparse.cc:396:parse_blif$337">
    <s:alias val="$_NOT_"/>
    <s:alias val="$not"/>
    <s:alias val="$logic_not"/>
    <path d="M0,0 L0,20 L20,10 Z" class="cell_$abc$332$auto$blifparse.cc:396:parse_blif$337"/>
    <circle cx="23" cy="10" r="3" class="cell_$abc$332$auto$blifparse.cc:396:parse_blif$337"/>
    <g s:x="0" s:y="10" s:pid="A"/>
    <g s:x="25" s:y="10" s:pid="Y"/>
  </g>
  <g s:type="nand" transform="translate(390,12)" s:width="30" s:height="25" id="cell_$abc$332$auto$blifparse.cc:396:parse_blif$338">
    <s:alias val="$nand"/>
    <s:alias val="$logic_nand"/>
    <s:alias val="$_NAND_"/>
    <s:alias val="$_ANDNOT_"/>
    <path d="M0,0 L0,25 L15,25 A15 12.5 0 0 0 15,0 Z" class="cell_$abc$332$auto$blifparse.cc:396:parse_blif$338"/>
    <circle cx="34" cy="12.5" r="3" class="cell_$abc$332$auto$blifparse.cc:396:parse_blif$338"/>
    <g s:x="0" s:y="5" s:pid="A"/>
    <g s:x="0" s:y="20" s:pid="B"/>
    <g s:x="36" s:y="12.5" s:pid="Y"/>
  </g>
  <g s:type="not" transform="translate(461,14.5)" s:width="30" s:height="20" id="cell_$abc$332$auto$blifparse.cc:396:parse_blif$339">
    <s:alias val="$_NOT_"/>
    <s:alias val="$not"/>
    <s:alias val="$logic_not"/>
    <path d="M0,0 L0,20 L20,10 Z" class="cell_$abc$332$auto$blifparse.cc:396:parse_blif$339"/>
    <circle cx="23" cy="10" r="3" class="cell_$abc$332$auto$blifparse.cc:396:parse_blif$339"/>
    <g s:x="0" s:y="10" s:pid="A"/>
    <g s:x="25" s:y="10" s:pid="Y"/>
  </g>
  <g s:type="nand" transform="translate(199,319.5)" s:width="30" s:height="25" id="cell_$abc$332$auto$blifparse.cc:396:parse_blif$340">
    <s:alias val="$nand"/>
    <s:alias val="$logic_nand"/>
    <s:alias val="$_NAND_"/>
    <s:alias val="$_ANDNOT_"/>
    <path d="M0,0 L0,25 L15,25 A15 12.5 0 0 0 15,0 Z" class="cell_$abc$332$auto$blifparse.cc:396:parse_blif$340"/>
    <circle cx="34" cy="12.5" r="3" class="cell_$abc$332$auto$blifparse.cc:396:parse_blif$340"/>
    <g s:x="0" s:y="5" s:pid="A"/>
    <g s:x="0" s:y="20" s:pid="B"/>
    <g s:x="36" s:y="12.5" s:pid="Y"/>
  </g>
  <g s:type="not" transform="translate(270,322)" s:width="30" s:height="20" id="cell_$abc$332$auto$blifparse.cc:396:parse_blif$341">
    <s:alias val="$_NOT_"/>
    <s:alias val="$not"/>
    <s:alias val="$logic_not"/>
    <path d="M0,0 L0,20 L20,10 Z" class="cell_$abc$332$auto$blifparse.cc:396:parse_blif$341"/>
    <circle cx="23" cy="10" r="3" class="cell_$abc$332$auto$blifparse.cc:396:parse_blif$341"/>
    <g s:x="0" s:y="10" s:pid="A"/>
    <g s:x="25" s:y="10" s:pid="Y"/>
  </g>
  <g s:type="nand" transform="translate(390,72)" s:width="30" s:height="25" id="cell_$abc$332$auto$blifparse.cc:396:parse_blif$342">
    <s:alias val="$nand"/>
    <s:alias val="$logic_nand"/>
    <s:alias val="$_NAND_"/>
    <s:alias val="$_ANDNOT_"/>
    <path d="M0,0 L0,25 L15,25 A15 12.5 0 0 0 15,0 Z" class="cell_$abc$332$auto$blifparse.cc:396:parse_blif$342"/>
    <circle cx="34" cy="12.5" r="3" class="cell_$abc$332$auto$blifparse.cc:396:parse_blif$342"/>
    <g s:x="0" s:y="5" s:pid="A"/>
    <g s:x="0" s:y="20" s:pid="B"/>
    <g s:x="36" s:y="12.5" s:pid="Y"/>
  </g>
  <g s:type="not" transform="translate(461,74.5)" s:width="30" s:height="20" id="cell_$abc$332$auto$blifparse.cc:396:parse_blif$343">
    <s:alias val="$_NOT_"/>
    <s:alias val="$not"/>
    <s:alias val="$logic_not"/>
    <path d="M0,0 L0,20 L20,10 Z" class="cell_$abc$332$auto$blifparse.cc:396:parse_blif$343"/>
    <circle cx="23" cy="10" r="3" class="cell_$abc$332$auto$blifparse.cc:396:parse_blif$343"/>
    <g s:x="0" s:y="10" s:pid="A"/>
    <g s:x="25" s:y="10" s:pid="Y"/>
  </g>
  <g s:type="nand" transform="translate(199,379.5)" s:width="30" s:height="25" id="cell_$abc$332$auto$blifparse.cc:396:parse_blif$344">
    <s:alias val="$nand"/>
    <s:alias val="$logic_nand"/>
    <s:alias val="$_NAND_"/>
    <s:alias val="$_ANDNOT_"/>
    <path d="M0,0 L0,25 L15,25 A15 12.5 0 0 0 15,0 Z" class="cell_$abc$332$auto$blifparse.cc:396:parse_blif$344"/>
    <circle cx="34" cy="12.5" r="3" class="cell_$abc$332$auto$blifparse.cc:396:parse_blif$344"/>
    <g s:x="0" s:y="5" s:pid="A"/>
    <g s:x="0" s:y="20" s:pid="B"/>
    <g s:x="36" s:y="12.5" s:pid="Y"/>
  </g>
  <g s:type="not" transform="translate(270,382)" s:width="30" s:height="20" id="cell_$abc$332$auto$blifparse.cc:396:parse_blif$345">
    <s:alias val="$_NOT_"/>
    <s:alias val="$not"/>
    <s:alias val="$logic_not"/>
    <path d="M0,0 L0,20 L20,10 Z" class="cell_$abc$332$auto$blifparse.cc:396:parse_blif$345"/>
    <circle cx="23" cy="10" r="3" class="cell_$abc$332$auto$blifparse.cc:396:parse_blif$345"/>
    <g s:x="0" s:y="10" s:pid="A"/>
    <g s:x="25" s:y="10" s:pid="Y"/>
  </g>
  <g s:type="nand" transform="translate(390,132)" s:width="30" s:height="25" id="cell_$abc$332$auto$blifparse.cc:396:parse_blif$346">
    <s:alias val="$nand"/>
    <s:alias val="$logic_nand"/>
    <s:alias val="$_NAND_"/>
    <s:alias val="$_ANDNOT_"/>
    <path d="M0,0 L0,25 L15,25 A15 12.5 0 0 0 15,0 Z" class="cell_$abc$332$auto$blifparse.cc:396:parse_blif$346"/>
    <circle cx="34" cy="12.5" r="3" class="cell_$abc$332$auto$blifparse.cc:396:parse_blif$346"/>
    <g s:x="0" s:y="5" s:pid="A"/>
    <g s:x="0" s:y="20" s:pid="B"/>
    <g s:x="36" s:y="12.5" s:pid="Y"/>
  </g>
  <g s:type="not" transform="translate(461,134.5)" s:width="30" s:height="20" id="cell_$abc$332$auto$blifparse.cc:396:parse_blif$347">
    <s:alias val="$_NOT_"/>
    <s:alias val="$not"/>
    <s:alias val="$logic_not"/>
    <path d="M0,0 L0,20 L20,10 Z" class="cell_$abc$332$auto$blifparse.cc:396:parse_blif$347"/>
    <circle cx="23" cy="10" r="3" class="cell_$abc$332$auto$blifparse.cc:396:parse_blif$347"/>
    <g s:x="0" s:y="10" s:pid="A"/>
    <g s:x="25" s:y="10" s:pid="Y"/>
  </g>
  <g s:type="nand" transform="translate(199,425.5)" s:width="30" s:height="25" id="cell_$abc$332$auto$blifparse.cc:396:parse_blif$348">
    <s:alias val="$nand"/>
    <s:alias val="$logic_nand"/>
    <s:alias val="$_NAND_"/>
    <s:alias val="$_ANDNOT_"/>
    <path d="M0,0 L0,25 L15,25 A15 12.5 0 0 0 15,0 Z" class="cell_$abc$332$auto$blifparse.cc:396:parse_blif$348"/>
    <circle cx="34" cy="12.5" r="3" class="cell_$abc$332$auto$blifparse.cc:396:parse_blif$348"/>
    <g s:x="0" s:y="5" s:pid="A"/>
    <g s:x="0" s:y="20" s:pid="B"/>
    <g s:x="36" s:y="12.5" s:pid="Y"/>
  </g>
  <g s:type="not" transform="translate(270,428)" s:width="30" s:height="20" id="cell_$abc$332$auto$blifparse.cc:396:parse_blif$349">
    <s:alias val="$_NOT_"/>
    <s:alias val="$not"/>
    <s:alias val="$logic_not"/>
    <path d="M0,0 L0,20 L20,10 Z" class="cell_$abc$332$auto$blifparse.cc:396:parse_blif$349"/>
    <circle cx="23" cy="10" r="3" class="cell_$abc$332$auto$blifparse.cc:396:parse_blif$349"/>
    <g s:x="0" s:y="10" s:pid="A"/>
    <g s:x="25" s:y="10" s:pid="Y"/>
  </g>
  <g s:type="nand" transform="translate(390,192)" s:width="30" s:height="25" id="cell_$abc$332$auto$blifparse.cc:396:parse_blif$350">
    <s:alias val="$nand"/>
    <s:alias val="$logic_nand"/>
    <s:alias val="$_NAND_"/>
    <s:alias val="$_ANDNOT_"/>
    <path d="M0,0 L0,25 L15,25 A15 12.5 0 0 0 15,0 Z" class="cell_$abc$332$auto$blifparse.cc:396:parse_blif$350"/>
    <circle cx="34" cy="12.5" r="3" class="cell_$abc$332$auto$blifparse.cc:396:parse_blif$350"/>
    <g s:x="0" s:y="5" s:pid="A"/>
    <g s:x="0" s:y="20" s:pid="B"/>
    <g s:x="36" s:y="12.5" s:pid="Y"/>
  </g>
  <g s:type="not" transform="translate(461,194.5)" s:width="30" s:height="20" id="cell_$abc$332$auto$blifparse.cc:396:parse_blif$351">
    <s:alias val="$_NOT_"/>
    <s:alias val="$not"/>
    <s:alias val="$logic_not"/>
    <path d="M0,0 L0,20 L20,10 Z" class="cell_$abc$332$auto$blifparse.cc:396:parse_blif$351"/>
    <circle cx="23" cy="10" r="3" class="cell_$abc$332$auto$blifparse.cc:396:parse_blif$351"/>
    <g s:x="0" s:y="10" s:pid="A"/>
    <g s:x="25" s:y="10" s:pid="Y"/>
  </g>
  <g s:type="nand" transform="translate(390,252)" s:width="30" s:height="25" id="cell_$abc$332$auto$blifparse.cc:396:parse_blif$352">
    <s:alias val="$nand"/>
    <s:alias val="$logic_nand"/>
    <s:alias val="$_NAND_"/>
    <s:alias val="$_ANDNOT_"/>
    <path d="M0,0 L0,25 L15,25 A15 12.5 0 0 0 15,0 Z" class="cell_$abc$332$auto$blifparse.cc:396:parse_blif$352"/>
    <circle cx="34" cy="12.5" r="3" class="cell_$abc$332$auto$blifparse.cc:396:parse_blif$352"/>
    <g s:x="0" s:y="5" s:pid="A"/>
    <g s:x="0" s:y="20" s:pid="B"/>
    <g s:x="36" s:y="12.5" s:pid="Y"/>
  </g>
  <g s:type="not" transform="translate(461,254.5)" s:width="30" s:height="20" id="cell_$abc$332$auto$blifparse.cc:396:parse_blif$353">
    <s:alias val="$_NOT_"/>
    <s:alias val="$not"/>
    <s:alias val="$logic_not"/>
    <path d="M0,0 L0,20 L20,10 Z" class="cell_$abc$332$auto$blifparse.cc:396:parse_blif$353"/>
    <circle cx="23" cy="10" r="3" class="cell_$abc$332$auto$blifparse.cc:396:parse_blif$353"/>
    <g s:x="0" s:y="10" s:pid="A"/>
    <g s:x="25" s:y="10" s:pid="Y"/>
  </g>
  <g s:type="nand" transform="translate(390,312)" s:width="30" s:height="25" id="cell_$abc$332$auto$blifparse.cc:396:parse_blif$354">
    <s:alias val="$nand"/>
    <s:alias val="$logic_nand"/>
    <s:alias val="$_NAND_"/>
    <s:alias val="$_ANDNOT_"/>
    <path d="M0,0 L0,25 L15,25 A15 12.5 0 0 0 15,0 Z" class="cell_$abc$332$auto$blifparse.cc:396:parse_blif$354"/>
    <circle cx="34" cy="12.5" r="3" class="cell_$abc$332$auto$blifparse.cc:396:parse_blif$354"/>
    <g s:x="0" s:y="5" s:pid="A"/>
    <g s:x="0" s:y="20" s:pid="B"/>
    <g s:x="36" s:y="12.5" s:pid="Y"/>
  </g>
  <g s:type="not" transform="translate(461,314.5)" s:width="30" s:height="20" id="cell_$abc$332$auto$blifparse.cc:396:parse_blif$355">
    <s:alias val="$_NOT_"/>
    <s:alias val="$not"/>
    <s:alias val="$logic_not"/>
    <path d="M0,0 L0,20 L20,10 Z" class="cell_$abc$332$auto$blifparse.cc:396:parse_blif$355"/>
    <circle cx="23" cy="10" r="3" class="cell_$abc$332$auto$blifparse.cc:396:parse_blif$355"/>
    <g s:x="0" s:y="10" s:pid="A"/>
    <g s:x="25" s:y="10" s:pid="Y"/>
  </g>
  <g s:type="nand" transform="translate(390,372)" s:width="30" s:height="25" id="cell_$abc$332$auto$blifparse.cc:396:parse_blif$356">
    <s:alias val="$nand"/>
    <s:alias val="$logic_nand"/>
    <s:alias val="$_NAND_"/>
    <s:alias val="$_ANDNOT_"/>
    <path d="M0,0 L0,25 L15,25 A15 12.5 0 0 0 15,0 Z" class="cell_$abc$332$auto$blifparse.cc:396:parse_blif$356"/>
    <circle cx="34" cy="12.5" r="3" class="cell_$abc$332$auto$blifparse.cc:396:parse_blif$356"/>
    <g s:x="0" s:y="5" s:pid="A"/>
    <g s:x="0" s:y="20" s:pid="B"/>
    <g s:x="36" s:y="12.5" s:pid="Y"/>
  </g>
  <g s:type="not" transform="translate(461,374.5)" s:width="30" s:height="20" id="cell_$abc$332$auto$blifparse.cc:396:parse_blif$357">
    <s:alias val="$_NOT_"/>
    <s:alias val="$not"/>
    <s:alias val="$logic_not"/>
    <path d="M0,0 L0,20 L20,10 Z" class="cell_$abc$332$auto$blifparse.cc:396:parse_blif$357"/>
    <circle cx="23" cy="10" r="3" class="cell_$abc$332$auto$blifparse.cc:396:parse_blif$357"/>
    <g s:x="0" s:y="10" s:pid="A"/>
    <g s:x="25" s:y="10" s:pid="Y"/>
  </g>
  <g s:type="nand" transform="translate(390,460.5)" s:width="30" s:height="25" id="cell_$abc$332$auto$blifparse.cc:396:parse_blif$358">
    <s:alias val="$nand"/>
    <s:alias val="$logic_nand"/>
    <s:alias val="$_NAND_"/>
    <s:alias val="$_ANDNOT_"/>
    <path d="M0,0 L0,25 L15,25 A15 12.5 0 0 0 15,0 Z" class="cell_$abc$332$auto$blifparse.cc:396:parse_blif$358"/>
    <circle cx="34" cy="12.5" r="3" class="cell_$abc$332$auto$blifparse.cc:396:parse_blif$358"/>
    <g s:x="0" s:y="5" s:pid="A"/>
    <g s:x="0" s:y="20" s:pid="B"/>
    <g s:x="36" s:y="12.5" s:pid="Y"/>
  </g>
  <g s:type="not" transform="translate(461,463)" s:width="30" s:height="20" id="cell_$abc$332$auto$blifparse.cc:396:parse_blif$359">
    <s:alias val="$_NOT_"/>
    <s:alias val="$not"/>
    <s:alias val="$logic_not"/>
    <path d="M0,0 L0,20 L20,10 Z" class="cell_$abc$332$auto$blifparse.cc:396:parse_blif$359"/>
    <circle cx="23" cy="10" r="3" class="cell_$abc$332$auto$blifparse.cc:396:parse_blif$359"/>
    <g s:x="0" s:y="10" s:pid="A"/>
    <g s:x="25" s:y="10" s:pid="Y"/>
  </g>
  <g s:type="inputExt" transform="translate(12,425.5)" s:width="30" s:height="20" id="cell_a">
    <text x="15" y="-4" class="nodelabel cell_a" s:attribute="ref">a</text>
    <s:alias val="$_inputExt_"/>
    <path d="M0,0 L0,20 L15,20 L30,10 L15,0 Z" class="cell_a"/>
    <g s:x="28" s:y="10" s:pid="Y"/>
  </g>
  <g s:type="outputExt" transform="translate(574,184.5)" s:width="30" s:height="20" id="cell_y">
    <text x="15" y="-4" class="nodelabel cell_y" s:attribute="ref">y</text>
    <s:alias val="$_outputExt_"/>
    <path d="M30,0 L30,20 L15,20 L0,10 L15,0 Z" class="cell_y"/>
    <g s:x="0" s:y="10" s:pid="A"/>
  </g>
  <g s:type="constant" transform="translate(461,528)" s:width="30" s:height="20" id="cell_0">
    <text x="15" y="-4" class="nodelabel cell_0" s:attribute="ref">0</text>
    <s:alias val="$_constant_"/>
    <rect width="30" height="20" class="cell_0"/>
    <g s:x="30" s:y="10" s:pid="Y"/>
  </g>
  <g s:type="join" transform="translate(531,174)" s:width="4" s:height="40" id="cell_$join$,5,6,7,8,9,10,11,12,32,">
    <rect width="5" height="180" class="splitjoinBody" s:generic="body"/>
    <s:alias val="$_join_"/>
    <g s:x="5" s:y="20" s:pid="out"/>
    <g transform="translate(0,10)" s:x="0" s:y="10" s:pid="in0">
      <text x="-3" y="-4" class="inputPortLabel">0</text>
    </g>
    <g transform="translate(0,30)" s:x="0" s:y="10" s:pid="in0">
      <text x="-3" y="-4" class="inputPortLabel">1</text>
    </g>
    <g transform="translate(0,50)" s:x="0" s:y="10" s:pid="in0">
      <text x="-3" y="-4" class="inputPortLabel">2</text>
    </g>
    <g transform="translate(0,70)" s:x="0" s:y="10" s:pid="in0">
      <text x="-3" y="-4" class="inputPortLabel">3</text>
    </g>
    <g transform="translate(0,90)" s:x="0" s:y="10" s:pid="in0">
      <text x="-3" y="-4" class="inputPortLabel">4</text>
    </g>
    <g transform="translate(0,110)" s:x="0" s:y="10" s:pid="in0">
      <text x="-3" y="-4" class="inputPortLabel">5</text>
    </g>
    <g transform="translate(0,130)" s:x="0" s:y="10" s:pid="in0">
      <text x="-3" y="-4" class="inputPortLabel">6</text>
    </g>
    <g transform="translate(0,150)" s:x="0" s:y="10" s:pid="in0">
      <text x="-3" y="-4" class="inputPortLabel">7</text>
    </g>
    <g transform="translate(0,170)" s:x="0" s:y="10" s:pid="in0">
      <text x="-3" y="-4" class="inputPortLabel">8</text>
    </g>
  </g>
  <g s:type="split" transform="translate(77,415)" s:width="5" s:height="40" id="cell_$split$,2,3,4,">
    <rect width="5" height="60" class="splitjoinBody" s:generic="body"/>
    <s:alias val="$_split_"/>
    <g s:x="0" s:y="20" s:pid="in"/>
    <g transform="translate(4,10)" s:x="4" s:y="10" s:pid="out0">
      <text x="5" y="-4">0</text>
    </g>
    <g transform="translate(4,30)" s:x="4" s:y="10" s:pid="out0">
      <text x="5" y="-4">1</text>
    </g>
    <g transform="translate(4,50)" s:x="4" s:y="10" s:pid="out0">
      <text x="5" y="-4">2</text>
    </g>
  </g>
  <line x1="82" x2="99" y1="425.5" y2="425.5" class="net_2"/>
  <line x1="99" x2="99" y1="425.5" y2="264.5" class="net_2"/>
  <circle cx="99" cy="425.5" r="2" style="fill:#000" class="net_2"/>
  <circle cx="99" cy="264.5" r="2" style="fill:#000" class="net_2"/>
  <line x1="99" x2="129" y1="264.5" y2="264.5" class="net_2"/>
  <line x1="82" x2="99" y1="425.5" y2="425.5" class="net_2"/>
  <line x1="99" x2="99" y1="425.5" y2="243.5" class="net_2"/>
  <line x1="99" x2="189" y1="243.5" y2="243.5" class="net_2"/>
  <line x1="189" x2="189" y1="243.5" y2="324.5" class="net_2"/>
  <line x1="189" x2="199" y1="324.5" y2="324.5" class="net_2"/>
  <line x1="82" x2="169" y1="425.5" y2="425.5" class="net_2"/>
  <line x1="169" x2="169" y1="425.5" y2="430.5" class="net_2"/>
  <line x1="169" x2="199" y1="430.5" y2="430.5" class="net_2"/>
  <line x1="82" x2="119" y1="445.5" y2="445.5" class="net_3"/>
  <line x1="119" x2="119" y1="445.5" y2="339.5" class="net_3"/>
  <circle cx="119" cy="445.5" r="2" style="fill:#000" class="net_3"/>
  <line x1="119" x2="129" y1="339.5" y2="339.5" class="net_3"/>
  <line x1="82" x2="119" y1="445.5" y2="445.5" class="net_3"/>
  <line x1="119" x2="119" y1="445.5" y2="399.5" class="net_3"/>
  <circle cx="119" cy="399.5" r="2" style="fill:#000" class="net_3"/>
  <line x1="119" x2="199" y1="399.5" y2="399.5" class="net_3"/>
  <line x1="82" x2="199" y1="445.5" y2="445.5" class="net_3"/>
  <line x1="82" x2="109" y1="465.5" y2="465.5" class="net_4"/>
  <line x1="109" x2="109" y1="465.5" y2="197" class="net_4"/>
  <circle cx="109" cy="465.5" r="2" style="fill:#000" class="net_4"/>
  <line x1="109" x2="270" y1="197" y2="197" class="net_4"/>
  <line x1="82" x2="109" y1="465.5" y2="465.5" class="net_4"/>
  <line x1="109" x2="109" y1="465.5" y2="368.5" class="net_4"/>
  <line x1="109" x2="350" y1="368.5" y2="368.5" class="net_4"/>
  <line x1="350" x2="350" y1="368.5" y2="257" class="net_4"/>
  <circle cx="109" cy="368.5" r="2" style="fill:#000" class="net_4"/>
  <line x1="350" x2="390" y1="257" y2="257" class="net_4"/>
  <line x1="82" x2="109" y1="465.5" y2="465.5" class="net_4"/>
  <line x1="109" x2="109" y1="465.5" y2="414.5" class="net_4"/>
  <line x1="109" x2="370" y1="414.5" y2="414.5" class="net_4"/>
  <line x1="370" x2="370" y1="414.5" y2="317" class="net_4"/>
  <circle cx="109" cy="414.5" r="2" style="fill:#000" class="net_4"/>
  <line x1="370" x2="390" y1="317" y2="317" class="net_4"/>
  <line x1="82" x2="380" y1="465.5" y2="465.5" class="net_4"/>
  <line x1="380" x2="380" y1="465.5" y2="377" class="net_4"/>
  <circle cx="380" cy="465.5" r="2" style="fill:#000" class="net_4"/>
  <line x1="380" x2="390" y1="377" y2="377" class="net_4"/>
  <line x1="82" x2="390" y1="465.5" y2="465.5" class="net_4"/>
  <line x1="154" x2="199" y1="264.5" y2="264.5" class="net_13"/>
  <line x1="154" x2="169" y1="264.5" y2="264.5" class="net_13"/>
  <line x1="169" x2="169" y1="264.5" y2="384.5" class="net_13"/>
  <circle cx="169" cy="264.5" r="2" style="fill:#000" class="net_13"/>
  <line x1="169" x2="199" y1="384.5" y2="384.5" class="net_13"/>
  <line x1="154" x2="179" y1="339.5" y2="339.5" class="net_14"/>
  <line x1="179" x2="179" y1="339.5" y2="279.5" class="net_14"/>
  <circle cx="179" cy="339.5" r="2" style="fill:#000" class="net_14"/>
  <line x1="179" x2="199" y1="279.5" y2="279.5" class="net_14"/>
  <line x1="154" x2="199" y1="339.5" y2="339.5" class="net_14"/>
  <line x1="235" x2="270" y1="272" y2="272" class="net_16"/>
  <line x1="295" x2="330" y1="197" y2="197" class="net_15"/>
  <line x1="330" x2="330" y1="197" y2="17" class="net_15"/>
  <circle cx="330" cy="197" r="2" style="fill:#000" class="net_15"/>
  <line x1="330" x2="390" y1="17" y2="17" class="net_15"/>
  <line x1="295" x2="330" y1="197" y2="197" class="net_15"/>
  <line x1="330" x2="330" y1="197" y2="77" class="net_15"/>
  <circle cx="330" cy="77" r="2" style="fill:#000" class="net_15"/>
  <line x1="330" x2="390" y1="77" y2="77" class="net_15"/>
  <line x1="295" x2="330" y1="197" y2="197" class="net_15"/>
  <line x1="330" x2="330" y1="197" y2="137" class="net_15"/>
  <circle cx="330" cy="137" r="2" style="fill:#000" class="net_15"/>
  <line x1="330" x2="390" y1="137" y2="137" class="net_15"/>
  <line x1="295" x2="390" y1="197" y2="197" class="net_15"/>
  <line x1="295" x2="310" y1="272" y2="272" class="net_17"/>
  <line x1="310" x2="310" y1="272" y2="32" class="net_17"/>
  <circle cx="310" cy="272" r="2" style="fill:#000" class="net_17"/>
  <line x1="310" x2="390" y1="32" y2="32" class="net_17"/>
  <line x1="295" x2="390" y1="272" y2="272" class="net_17"/>
  <line x1="426" x2="461" y1="24.5" y2="24.5" class="net_18"/>
  <line x1="235" x2="270" y1="332" y2="332" class="net_19"/>
  <line x1="295" x2="320" y1="332" y2="332" class="net_20"/>
  <line x1="320" x2="320" y1="332" y2="92" class="net_20"/>
  <circle cx="320" cy="332" r="2" style="fill:#000" class="net_20"/>
  <line x1="320" x2="390" y1="92" y2="92" class="net_20"/>
  <line x1="295" x2="390" y1="332" y2="332" class="net_20"/>
  <line x1="426" x2="461" y1="84.5" y2="84.5" class="net_21"/>
  <line x1="235" x2="270" y1="392" y2="392" class="net_22"/>
  <line x1="295" x2="340" y1="392" y2="392" class="net_23"/>
  <line x1="340" x2="340" y1="392" y2="152" class="net_23"/>
  <circle cx="340" cy="392" r="2" style="fill:#000" class="net_23"/>
  <line x1="340" x2="390" y1="152" y2="152" class="net_23"/>
  <line x1="295" x2="390" y1="392" y2="392" class="net_23"/>
  <line x1="426" x2="461" y1="144.5" y2="144.5" class="net_24"/>
  <line x1="235" x2="270" y1="438" y2="438" class="net_25"/>
  <line x1="295" x2="360" y1="438" y2="438" class="net_26"/>
  <line x1="360" x2="360" y1="438" y2="212" class="net_26"/>
  <circle cx="360" cy="438" r="2" style="fill:#000" class="net_26"/>
  <line x1="360" x2="390" y1="212" y2="212" class="net_26"/>
  <line x1="295" x2="360" y1="438" y2="438" class="net_26"/>
  <line x1="360" x2="360" y1="438" y2="480.5" class="net_26"/>
  <line x1="360" x2="390" y1="480.5" y2="480.5" class="net_26"/>
  <line x1="426" x2="461" y1="204.5" y2="204.5" class="net_27"/>
  <line x1="426" x2="461" y1="264.5" y2="264.5" class="net_28"/>
  <line x1="426" x2="461" y1="324.5" y2="324.5" class="net_29"/>
  <line x1="426" x2="461" y1="384.5" y2="384.5" class="net_30"/>
  <line x1="426" x2="461" y1="473" y2="473" class="net_31"/>
  <line x1="537" x2="574" y1="194.5" y2="194.5" class="net_5,6,7,8,9,10,11,12,32"/>
  <line x1="486" x2="531.5" y1="24.5" y2="24.5" class="net_5"/>
  <line x1="531.5" x2="531.5" y1="24.5" y2="184" class="net_5"/>
  <line x1="486" x2="521" y1="84.5" y2="84.5" class="net_6"/>
  <line x1="521" x2="521" y1="84.5" y2="204.5" class="net_6"/>
  <line x1="521" x2="531" y1="204.5" y2="204.5" class="net_6"/>
  <line x1="486" x2="511" y1="144.5" y2="144.5" class="net_7"/>
  <line x1="511" x2="511" y1="144.5" y2="224.5" class="net_7"/>
  <line x1="511" x2="531" y1="224.5" y2="224.5" class="net_7"/>
  <line x1="486" x2="501" y1="204.5" y2="204.5" class="net_8"/>
  <line x1="501" x2="501" y1="204.5" y2="244.5" class="net_8"/>
  <line x1="501" x2="531" y1="244.5" y2="244.5" class="net_8"/>
  <line x1="486" x2="531" y1="264.5" y2="264.5" class="net_9"/>
  <line x1="486" x2="501" y1="324.5" y2="324.5" class="net_10"/>
  <line x1="501" x2="501" y1="324.5" y2="284.5" class="net_10"/>
  <line x1="501" x2="531" y1="284.5" y2="284.5" class="net_10"/>
  <line x1="486" x2="511" y1="384.5" y2="384.5" class="net_11"/>
  <line x1="511" x2="511" y1="384.5" y2="304.5" class="net_11"/>
  <line x1="511" x2="531" y1="304.5" y2="304.5" class="net_11"/>
  <line x1="486" x2="521" y1="473" y2="473" class="net_12"/>
  <line x1="521" x2="521" y1="473" y2="324.5" class="net_12"/>
  <line x1="521" x2="531" y1="324.5" y2="324.5" class="net_12"/>
  <line x1="491" x2="531.5" y1="538" y2="538" class="net_32"/>
  <line x1="531.5" x2="531.5" y1="538" y2="345" class="net_32"/>
  <line x1="40" x2="77" y1="435.5" y2="435.5" class="net_2,3,4"/>
</svg>
