<svg xmlns="http://www.w3.org/2000/svg" xmlns:xlink="http://www.w3.org/1999/xlink" xmlns:s="https://github.com/nturley/netlistsvg" width="492" height="1050.5">
  <style>svg {
    stroke:#000;
    fill:none;
  }
  text {
    fill:#000;
    stroke:none;
    font-size:10px;
    font-weight: bold;
    font-family: "Courier New", monospace;
  }
  .nodelabel {
    text-anchor: middle;
  }
  .inputPortLabel {
    text-anchor: end;
  }
  .splitjoinBody {
    fill:#000;
  }</style>
  <g s:type="and" transform="translate(187,494)" s:width="30" s:height="25" id="cell_$abc$88$auto$blifparse.cc:396:parse_blif$100">
    <s:alias val="$and"/>
    <s:alias val="$logic_and"/>
    <s:alias val="$_AND_"/>
    <path d="M0,0 L0,25 L15,25 A15 12.5 0 0 0 15,0 Z" class="cell_$abc$88$auto$blifparse.cc:396:parse_blif$100"/>
    <g s:x="0" s:y="5" s:pid="A"/>
    <g s:x="0" s:y="20" s:pid="B"/>
    <g s:x="30" s:y="12.5" s:pid="Y"/>
  </g>
  <g s:type="or" transform="translate(307,486.5)" s:width="30" s:height="25" id="cell_$abc$88$auto$blifparse.cc:396:parse_blif$101">
    <s:alias val="$or"/>
    <s:alias val="$logic_or"/>
    <s:alias val="$_OR_"/>
    <path d="M0,25 L0,25 L15,25 A15 12.5 0 0 0 15,0 L0,0" class="cell_$abc$88$auto$blifparse.cc:396:parse_blif$101"/>
    <path d="M0,0 A30 25 0 0 1 0,25" class="cell_$abc$88$auto$blifparse.cc:396:parse_blif$101"/>
    <g s:x="3" s:y="5" s:pid="A"/>
    <g s:x="3" s:y="20" s:pid="B"/>
    <g s:x="30" s:y="12.5" s:pid="Y"/>
  </g>
  <g s:type="and" transform="translate(187,12)" s:width="30" s:height="25" id="cell_$abc$88$auto$blifparse.cc:396:parse_blif$102">
    <s:alias val="$and"/>
    <s:alias val="$logic_and"/>
    <s:alias val="$_AND_"/>
    <path d="M0,0 L0,25 L15,25 A15 12.5 0 0 0 15,0 Z" class="cell_$abc$88$auto$blifparse.cc:396:parse_blif$102"/>
    <g s:x="0" s:y="5" s:pid="A"/>
    <g s:x="0" s:y="20" s:pid="B"/>
    <g s:x="30" s:y="12.5" s:pid="Y"/>
  </g>
  <g s:type="and" transform="translate(187,554)" s:width="30" s:height="25" id="cell_$abc$88$auto$blifparse.cc:396:parse_blif$103">
    <s:alias val="$and"/>
    <s:alias val="$logic_and"/>
    <s:alias val="$_AND_"/>
    <path d="M0,0 L0,25 L15,25 A15 12.5 0 0 0 15,0 Z" class="cell_$abc$88$auto$blifparse.cc:396:parse_blif$103"/>
    <g s:x="0" s:y="5" s:pid="A"/>
    <g s:x="0" s:y="20" s:pid="B"/>
    <g s:x="30" s:y="12.5" s:pid="Y"/>
  </g>
  <g s:type="or" transform="translate(307,546.5)" s:width="30" s:height="25" id="cell_$abc$88$auto$blifparse.cc:396:parse_blif$104">
    <s:alias val="$or"/>
    <s:alias val="$logic_or"/>
    <s:alias val="$_OR_"/>
    <path d="M0,25 L0,25 L15,25 A15 12.5 0 0 0 15,0 L0,0" class="cell_$abc$88$auto$blifparse.cc:396:parse_blif$104"/>
    <path d="M0,0 A30 25 0 0 1 0,25" class="cell_$abc$88$auto$blifparse.cc:396:parse_blif$104"/>
    <g s:x="3" s:y="5" s:pid="A"/>
    <g s:x="3" s:y="20" s:pid="B"/>
    <g s:x="30" s:y="12.5" s:pid="Y"/>
  </g>
  <g s:type="and" transform="translate(187,74)" s:width="30" s:height="25" id="cell_$abc$88$auto$blifparse.cc:396:parse_blif$105">
    <s:alias val="$and"/>
    <s:alias val="$logic_and"/>
    <s:alias val="$_AND_"/>
    <path d="M0,0 L0,25 L15,25 A15 12.5 0 0 0 15,0 Z" class="cell_$abc$88$auto$blifparse.cc:396:parse_blif$105"/>
    <g s:x="0" s:y="5" s:pid="A"/>
    <g s:x="0" s:y="20" s:pid="B"/>
    <g s:x="30" s:y="12.5" s:pid="Y"/>
  </g>
  <g s:type="and" transform="translate(187,614)" s:width="30" s:height="25" id="cell_$abc$88$auto$blifparse.cc:396:parse_blif$106">
    <s:alias val="$and"/>
    <s:alias val="$logic_and"/>
    <s:alias val="$_AND_"/>
    <path d="M0,0 L0,25 L15,25 A15 12.5 0 0 0 15,0 Z" class="cell_$abc$88$auto$blifparse.cc:396:parse_blif$106"/>
    <g s:x="0" s:y="5" s:pid="A"/>
    <g s:x="0" s:y="20" s:pid="B"/>
    <g s:x="30" s:y="12.5" s:pid="Y"/>
  </g>
  <g s:type="or" transform="translate(307,606.5)" s:width="30" s:height="25" id="cell_$abc$88$auto$blifparse.cc:396:parse_blif$107">
    <s:alias val="$or"/>
    <s:alias val="$logic_or"/>
    <s:alias val="$_OR_"/>
    <path d="M0,25 L0,25 L15,25 A15 12.5 0 0 0 15,0 L0,0" class="cell_$abc$88$auto$blifparse.cc:396:parse_blif$107"/>
    <path d="M0,0 A30 25 0 0 1 0,25" class="cell_$abc$88$auto$blifparse.cc:396:parse_blif$107"/>
    <g s:x="3" s:y="5" s:pid="A"/>
    <g s:x="3" s:y="20" s:pid="B"/>
    <g s:x="30" s:y="12.5" s:pid="Y"/>
  </g>
  <g s:type="and" transform="translate(187,134)" s:width="30" s:height="25" id="cell_$abc$88$auto$blifparse.cc:396:parse_blif$108">
    <s:alias val="$and"/>
    <s:alias val="$logic_and"/>
    <s:alias val="$_AND_"/>
    <path d="M0,0 L0,25 L15,25 A15 12.5 0 0 0 15,0 Z" class="cell_$abc$88$auto$blifparse.cc:396:parse_blif$108"/>
    <g s:x="0" s:y="5" s:pid="A"/>
    <g s:x="0" s:y="20" s:pid="B"/>
    <g s:x="30" s:y="12.5" s:pid="Y"/>
  </g>
  <g s:type="and" transform="translate(187,674)" s:width="30" s:height="25" id="cell_$abc$88$auto$blifparse.cc:396:parse_blif$109">
    <s:alias val="$and"/>
    <s:alias val="$logic_and"/>
    <s:alias val="$_AND_"/>
    <path d="M0,0 L0,25 L15,25 A15 12.5 0 0 0 15,0 Z" class="cell_$abc$88$auto$blifparse.cc:396:parse_blif$109"/>
    <g s:x="0" s:y="5" s:pid="A"/>
    <g s:x="0" s:y="20" s:pid="B"/>
    <g s:x="30" s:y="12.5" s:pid="Y"/>
  </g>
  <g s:type="or" transform="translate(307,666.5)" s:width="30" s:height="25" id="cell_$abc$88$auto$blifparse.cc:396:parse_blif$110">
    <s:alias val="$or"/>
    <s:alias val="$logic_or"/>
    <s:alias val="$_OR_"/>
    <path d="M0,25 L0,25 L15,25 A15 12.5 0 0 0 15,0 L0,0" class="cell_$abc$88$auto$blifparse.cc:396:parse_blif$110"/>
    <path d="M0,0 A30 25 0 0 1 0,25" class="cell_$abc$88$auto$blifparse.cc:396:parse_blif$110"/>
    <g s:x="3" s:y="5" s:pid="A"/>
    <g s:x="3" s:y="20" s:pid="B"/>
    <g s:x="30" s:y="12.5" s:pid="Y"/>
  </g>
  <g s:type="and" transform="translate(187,254)" s:width="30" s:height="25" id="cell_$abc$88$auto$blifparse.cc:396:parse_blif$111">
    <s:alias val="$and"/>
    <s:alias val="$logic_and"/>
    <s:alias val="$_AND_"/>
    <path d="M0,0 L0,25 L15,25 A15 12.5 0 0 0 15,0 Z" class="cell_$abc$88$auto$blifparse.cc:396:parse_blif$111"/>
    <g s:x="0" s:y="5" s:pid="A"/>
    <g s:x="0" s:y="20" s:pid="B"/>
    <g s:x="30" s:y="12.5" s:pid="Y"/>
  </g>
  <g s:type="and" transform="translate(187,734)" s:width="30" s:height="25" id="cell_$abc$88$auto$blifparse.cc:396:parse_blif$112">
    <s:alias val="$and"/>
    <s:alias val="$logic_and"/>
    <s:alias val="$_AND_"/>
    <path d="M0,0 L0,25 L15,25 A15 12.5 0 0 0 15,0 Z" class="cell_$abc$88$auto$blifparse.cc:396:parse_blif$112"/>
    <g s:x="0" s:y="5" s:pid="A"/>
    <g s:x="0" s:y="20" s:pid="B"/>
    <g s:x="30" s:y="12.5" s:pid="Y"/>
  </g>
  <g s:type="or" transform="translate(307,726.5)" s:width="30" s:height="25" id="cell_$abc$88$auto$blifparse.cc:396:parse_blif$113">
    <s:alias val="$or"/>
    <s:alias val="$logic_or"/>
    <s:alias val="$_OR_"/>
    <path d="M0,25 L0,25 L15,25 A15 12.5 0 0 0 15,0 L0,0" class="cell_$abc$88$auto$blifparse.cc:396:parse_blif$113"/>
    <path d="M0,0 A30 25 0 0 1 0,25" class="cell_$abc$88$auto$blifparse.cc:396:parse_blif$113"/>
    <g s:x="3" s:y="5" s:pid="A"/>
    <g s:x="3" s:y="20" s:pid="B"/>
    <g s:x="30" s:y="12.5" s:pid="Y"/>
  </g>
  <g s:type="not" transform="translate(77,484)" s:width="30" s:height="20" id="cell_$abc$88$auto$blifparse.cc:396:parse_blif$89">
    <s:alias val="$_NOT_"/>
    <s:alias val="$not"/>
    <s:alias val="$logic_not"/>
    <path d="M0,0 L0,20 L20,10 Z" class="cell_$abc$88$auto$blifparse.cc:396:parse_blif$89"/>
    <circle cx="23" cy="10" r="3" class="cell_$abc$88$auto$blifparse.cc:396:parse_blif$89"/>
    <g s:x="0" s:y="10" s:pid="A"/>
    <g s:x="25" s:y="10" s:pid="Y"/>
  </g>
  <g s:type="and" transform="translate(187,314)" s:width="30" s:height="25" id="cell_$abc$88$auto$blifparse.cc:396:parse_blif$90">
    <s:alias val="$and"/>
    <s:alias val="$logic_and"/>
    <s:alias val="$_AND_"/>
    <path d="M0,0 L0,25 L15,25 A15 12.5 0 0 0 15,0 Z" class="cell_$abc$88$auto$blifparse.cc:396:parse_blif$90"/>
    <g s:x="0" s:y="5" s:pid="A"/>
    <g s:x="0" s:y="20" s:pid="B"/>
    <g s:x="30" s:y="12.5" s:pid="Y"/>
  </g>
  <g s:type="and" transform="translate(187,794)" s:width="30" s:height="25" id="cell_$abc$88$auto$blifparse.cc:396:parse_blif$91">
    <s:alias val="$and"/>
    <s:alias val="$logic_and"/>
    <s:alias val="$_AND_"/>
    <path d="M0,0 L0,25 L15,25 A15 12.5 0 0 0 15,0 Z" class="cell_$abc$88$auto$blifparse.cc:396:parse_blif$91"/>
    <g s:x="0" s:y="5" s:pid="A"/>
    <g s:x="0" s:y="20" s:pid="B"/>
    <g s:x="30" s:y="12.5" s:pid="Y"/>
  </g>
  <g s:type="or" transform="translate(307,786.5)" s:width="30" s:height="25" id="cell_$abc$88$auto$blifparse.cc:396:parse_blif$92">
    <s:alias val="$or"/>
    <s:alias val="$logic_or"/>
    <s:alias val="$_OR_"/>
    <path d="M0,25 L0,25 L15,25 A15 12.5 0 0 0 15,0 L0,0" class="cell_$abc$88$auto$blifparse.cc:396:parse_blif$92"/>
    <path d="M0,0 A30 25 0 0 1 0,25" class="cell_$abc$88$auto$blifparse.cc:396:parse_blif$92"/>
    <g s:x="3" s:y="5" s:pid="A"/>
    <g s:x="3" s:y="20" s:pid="B"/>
    <g s:x="30" s:y="12.5" s:pid="Y"/>
  </g>
  <g s:type="and" transform="translate(187,374)" s:width="30" s:height="25" id="cell_$abc$88$auto$blifparse.cc:396:parse_blif$93">
    <s:alias val="$and"/>
    <s:alias val="$logic_and"/>
    <s:alias val="$_AND_"/>
    <path d="M0,0 L0,25 L15,25 A15 12.5 0 0 0 15,0 Z" class="cell_$abc$88$auto$blifparse.cc:396:parse_blif$93"/>
    <g s:x="0" s:y="5" s:pid="A"/>
    <g s:x="0" s:y="20" s:pid="B"/>
    <g s:x="30" s:y="12.5" s:pid="Y"/>
  </g>
  <g s:type="and" transform="translate(187,854)" s:width="30" s:height="25" id="cell_$abc$88$auto$blifparse.cc:396:parse_blif$94">
    <s:alias val="$and"/>
    <s:alias val="$logic_and"/>
    <s:alias val="$_AND_"/>
    <path d="M0,0 L0,25 L15,25 A15 12.5 0 0 0 15,0 Z" class="cell_$abc$88$auto$blifparse.cc:396:parse_blif$94"/>
    <g s:x="0" s:y="5" s:pid="A"/>
    <g s:x="0" s:y="20" s:pid="B"/>
    <g s:x="30" s:y="12.5" s:pid="Y"/>
  </g>
  <g s:type="or" transform="translate(307,846.5)" s:width="30" s:height="25" id="cell_$abc$88$auto$blifparse.cc:396:parse_blif$95">
    <s:alias val="$or"/>
    <s:alias val="$logic_or"/>
    <s:alias val="$_OR_"/>
    <path d="M0,25 L0,25 L15,25 A15 12.5 0 0 0 15,0 L0,0" class="cell_$abc$88$auto$blifparse.cc:396:parse_blif$95"/>
    <path d="M0,0 A30 25 0 0 1 0,25" class="cell_$abc$88$auto$blifparse.cc:396:parse_blif$95"/>
    <g s:x="3" s:y="5" s:pid="A"/>
    <g s:x="3" s:y="20" s:pid="B"/>
    <g s:x="30" s:y="12.5" s:pid="Y"/>
  </g>
  <g s:type="and" transform="translate(187,434)" s:width="30" s:height="25" id="cell_$abc$88$auto$blifparse.cc:396:parse_blif$96">
    <s:alias val="$and"/>
    <s:alias val="$logic_and"/>
    <s:alias val="$_AND_"/>
    <path d="M0,0 L0,25 L15,25 A15 12.5 0 0 0 15,0 Z" class="cell_$abc$88$auto$blifparse.cc:396:parse_blif$96"/>
    <g s:x="0" s:y="5" s:pid="A"/>
    <g s:x="0" s:y="20" s:pid="B"/>
    <g s:x="30" s:y="12.5" s:pid="Y"/>
  </g>
  <g s:type="and" transform="translate(187,914)" s:width="30" s:height="25" id="cell_$abc$88$auto$blifparse.cc:396:parse_blif$97">
    <s:alias val="$and"/>
    <s:alias val="$logic_and"/>
    <s:alias val="$_AND_"/>
    <path d="M0,0 L0,25 L15,25 A15 12.5 0 0 0 15,0 Z" class="cell_$abc$88$auto$blifparse.cc:396:parse_blif$97"/>
    <g s:x="0" s:y="5" s:pid="A"/>
    <g s:x="0" s:y="20" s:pid="B"/>
    <g s:x="30" s:y="12.5" s:pid="Y"/>
  </g>
  <g s:type="or" transform="translate(307,906.5)" s:width="30" s:height="25" id="cell_$abc$88$auto$blifparse.cc:396:parse_blif$98">
    <s:alias val="$or"/>
    <s:alias val="$logic_or"/>
    <s:alias val="$_OR_"/>
    <path d="M0,25 L0,25 L15,25 A15 12.5 0 0 0 15,0 L0,0" class="cell_$abc$88$auto$blifparse.cc:396:parse_blif$98"/>
    <path d="M0,0 A30 25 0 0 1 0,25" class="cell_$abc$88$auto$blifparse.cc:396:parse_blif$98"/>
    <g s:x="3" s:y="5" s:pid="A"/>
    <g s:x="3" s:y="20" s:pid="B"/>
    <g s:x="30" s:y="12.5" s:pid="Y"/>
  </g>
  <g s:type="and" transform="translate(187,194)" s:width="30" s:height="25" id="cell_$abc$88$auto$blifparse.cc:396:parse_blif$99">
    <s:alias val="$and"/>
    <s:alias val="$logic_and"/>
    <s:alias val="$_AND_"/>
    <path d="M0,0 L0,25 L15,25 A15 12.5 0 0 0 15,0 Z" class="cell_$abc$88$auto$blifparse.cc:396:parse_blif$99"/>
    <g s:x="0" s:y="5" s:pid="A"/>
    <g s:x="0" s:y="20" s:pid="B"/>
    <g s:x="30" s:y="12.5" s:pid="Y"/>
  </g>
  <g s:type="inputExt" transform="translate(12,674)" s:width="30" s:height="20" id="cell_d0">
    <text x="15" y="-4" class="nodelabel cell_d0" s:attribute="ref">d0</text>
    <s:alias val="$_inputExt_"/>
    <path d="M0,0 L0,20 L15,20 L30,10 L15,0 Z" class="cell_d0"/>
    <g s:x="28" s:y="10" s:pid="Y"/>
  </g>
  <g s:type="inputExt" transform="translate(12,54.5)" s:width="30" s:height="20" id="cell_d1">
    <text x="15" y="-4" class="nodelabel cell_d1" s:attribute="ref">d1</text>
    <s:alias val="$_inputExt_"/>
    <path d="M0,0 L0,20 L15,20 L30,10 L15,0 Z" class="cell_d1"/>
    <g s:x="28" s:y="10" s:pid="Y"/>
  </g>
  <g s:type="inputExt" transform="translate(12,249)" s:width="30" s:height="20" id="cell_s">
    <text x="15" y="-4" class="nodelabel cell_s" s:attribute="ref">s</text>
    <s:alias val="$_inputExt_"/>
    <path d="M0,0 L0,20 L15,20 L30,10 L15,0 Z" class="cell_s"/>
    <g s:x="28" s:y="10" s:pid="Y"/>
  </g>
  <g s:type="outputExt" transform="translate(450,879)" s:width="30" s:height="20" id="cell_y">
    <text x="15" y="-4" class="nodelabel cell_y" s:attribute="ref">y</text>
    <s:alias val="$_outputExt_"/>
    <path d="M30,0 L30,20 L15,20 L0,10 L15,0 Z" class="cell_y"/>
    <g s:x="0" s:y="10" s:pid="A"/>
  </g>
  <g s:type="join" transform="translate(407,868.5)" s:width="4" s:height="40" id="cell_$join$,19,20,21,22,23,24,25,26,">
    <rect width="5" height="160" class="splitjoinBody" s:generic="body"/>
    <s:alias val="$_join_"/>
    <g s:x="5" s:y="20" s:pid="out"/>
    <g transform="translate(0,10)" s:x="0" s:y="10" s:pid="in0">
      <text x="-3" y="-4" class="inputPortLabel">0</text>
    </g>
    <g transform="translate(0,30)" s:x="0" s:y="10" s:pid="in0">
      <text x="-3" y="-4" class="inputPortLabel">1</text>
    </g>
    <g transform="translate(0,50)" s:x="0" s:y="10" s:pid="in0">
      <text x="-3" y="-4" class="inputPortLabel">2</text>
    </g>
    <g transform="translate(0,70)" s:x="0" s:y="10" s:pid="in0">
      <text x="-3" y="-4" class="inputPortLabel">3</text>
    </g>
    <g transform="translate(0,90)" s:x="0" s:y="10" s:pid="in0">
      <text x="-3" y="-4" class="inputPortLabel">4</text>
    </g>
    <g transform="translate(0,110)" s:x="0" s:y="10" s:pid="in0">
      <text x="-3" y="-4" class="inputPortLabel">5</text>
    </g>
    <g transform="translate(0,130)" s:x="0" s:y="10" s:pid="in0">
      <text x="-3" y="-4" class="inputPortLabel">6</text>
    </g>
    <g transform="translate(0,150)" s:x="0" s:y="10" s:pid="in0">
      <text x="-3" y="-4" class="inputPortLabel">7</text>
    </g>
  </g>
  <g s:type="split" transform="translate(93.42857142857143,663.5)" s:width="5" s:height="40" id="cell_$split$,2,3,4,5,6,7,8,9,">
    <rect width="5" height="160" class="splitjoinBody" s:generic="body"/>
    <s:alias val="$_split_"/>
    <g s:x="0" s:y="20" s:pid="in"/>
    <g transform="translate(4,10)" s:x="4" s:y="10" s:pid="out0">
      <text x="5" y="-4">3</text>
    </g>
    <g transform="translate(4,30)" s:x="4" s:y="10" s:pid="out0">
      <text x="5" y="-4">4</text>
    </g>
    <g transform="translate(4,50)" s:x="4" s:y="10" s:pid="out0">
      <text x="5" y="-4">5</text>
    </g>
    <g transform="translate(4,70)" s:x="4" s:y="10" s:pid="out0">
      <text x="5" y="-4">6</text>
    </g>
    <g transform="translate(4,90)" s:x="4" s:y="10" s:pid="out0">
      <text x="5" y="-4">7</text>
    </g>
    <g transform="translate(4,110)" s:x="4" s:y="10" s:pid="out0">
      <text x="5" y="-4">0</text>
    </g>
    <g transform="translate(4,130)" s:x="4" s:y="10" s:pid="out0">
      <text x="5" y="-4">1</text>
    </g>
    <g transform="translate(4,150)" s:x="4" s:y="10" s:pid="out0">
      <text x="5" y="-4">2</text>
    </g>
  </g>
  <g s:type="split" transform="translate(93.42857142857143,44)" s:width="5" s:height="40" id="cell_$split$,10,11,12,13,14,15,16,17,">
    <rect width="5" height="160" class="splitjoinBody" s:generic="body"/>
    <s:alias val="$_split_"/>
    <g s:x="0" s:y="20" s:pid="in"/>
    <g transform="translate(4,10)" s:x="4" s:y="10" s:pid="out0">
      <text x="5" y="-4">4</text>
    </g>
    <g transform="translate(4,30)" s:x="4" s:y="10" s:pid="out0">
      <text x="5" y="-4">5</text>
    </g>
    <g transform="translate(4,50)" s:x="4" s:y="10" s:pid="out0">
      <text x="5" y="-4">6</text>
    </g>
    <g transform="translate(4,70)" s:x="4" s:y="10" s:pid="out0">
      <text x="5" y="-4">7</text>
    </g>
    <g transform="translate(4,90)" s:x="4" s:y="10" s:pid="out0">
      <text x="5" y="-4">0</text>
    </g>
    <g transform="translate(4,110)" s:x="4" s:y="10" s:pid="out0">
      <text x="5" y="-4">1</text>
    </g>
    <g transform="translate(4,130)" s:x="4" s:y="10" s:pid="out0">
      <text x="5" y="-4">2</text>
    </g>
    <g transform="translate(4,150)" s:x="4" s:y="10" s:pid="out0">
      <text x="5" y="-4">3</text>
    </g>
  </g>
  <line x1="102" x2="147" y1="494" y2="494" class="net_27"/>
  <line x1="147" x2="147" y1="494" y2="499" class="net_27"/>
  <circle cx="147" cy="499" r="2" style="fill:#000" class="net_27"/>
  <line x1="147" x2="187" y1="499" y2="499" class="net_27"/>
  <line x1="102" x2="147" y1="494" y2="494" class="net_27"/>
  <line x1="147" x2="147" y1="494" y2="559" class="net_27"/>
  <circle cx="147" cy="559" r="2" style="fill:#000" class="net_27"/>
  <line x1="147" x2="187" y1="559" y2="559" class="net_27"/>
  <line x1="102" x2="147" y1="494" y2="494" class="net_27"/>
  <line x1="147" x2="147" y1="494" y2="619" class="net_27"/>
  <circle cx="147" cy="619" r="2" style="fill:#000" class="net_27"/>
  <line x1="147" x2="187" y1="619" y2="619" class="net_27"/>
  <line x1="102" x2="147" y1="494" y2="494" class="net_27"/>
  <line x1="147" x2="147" y1="494" y2="679" class="net_27"/>
  <circle cx="147" cy="679" r="2" style="fill:#000" class="net_27"/>
  <line x1="147" x2="187" y1="679" y2="679" class="net_27"/>
  <line x1="102" x2="147" y1="494" y2="494" class="net_27"/>
  <line x1="147" x2="147" y1="494" y2="739" class="net_27"/>
  <circle cx="147" cy="739" r="2" style="fill:#000" class="net_27"/>
  <line x1="147" x2="187" y1="739" y2="739" class="net_27"/>
  <line x1="102" x2="147" y1="494" y2="494" class="net_27"/>
  <line x1="147" x2="147" y1="494" y2="814" class="net_27"/>
  <circle cx="147" cy="814" r="2" style="fill:#000" class="net_27"/>
  <line x1="147" x2="187" y1="814" y2="814" class="net_27"/>
  <line x1="102" x2="147" y1="494" y2="494" class="net_27"/>
  <line x1="147" x2="147" y1="494" y2="859" class="net_27"/>
  <circle cx="147" cy="859" r="2" style="fill:#000" class="net_27"/>
  <line x1="147" x2="187" y1="859" y2="859" class="net_27"/>
  <line x1="102" x2="147" y1="494" y2="494" class="net_27"/>
  <line x1="147" x2="147" y1="494" y2="919" class="net_27"/>
  <line x1="147" x2="187" y1="919" y2="919" class="net_27"/>
  <line x1="97.92857142857143" x2="97.92857142857143" y1="673.5" y2="514" class="net_5"/>
  <line x1="97.92857142857143" x2="187" y1="514" y2="514" class="net_5"/>
  <line x1="217" x2="287" y1="206.5" y2="206.5" class="net_29"/>
  <line x1="287" x2="287" y1="206.5" y2="491.5" class="net_29"/>
  <line x1="287" x2="310" y1="491.5" y2="491.5" class="net_29"/>
  <line x1="217" x2="310" y1="506.5" y2="506.5" class="net_28"/>
  <line x1="40" x2="177" y1="259" y2="259" class="net_18"/>
  <line x1="177" x2="177" y1="259" y2="17" class="net_18"/>
  <circle cx="177" cy="259" r="2" style="fill:#000" class="net_18"/>
  <line x1="177" x2="187" y1="17" y2="17" class="net_18"/>
  <line x1="40" x2="177" y1="259" y2="259" class="net_18"/>
  <line x1="177" x2="177" y1="259" y2="79" class="net_18"/>
  <circle cx="177" cy="79" r="2" style="fill:#000" class="net_18"/>
  <line x1="177" x2="187" y1="79" y2="79" class="net_18"/>
  <line x1="40" x2="177" y1="259" y2="259" class="net_18"/>
  <line x1="177" x2="177" y1="259" y2="139" class="net_18"/>
  <circle cx="177" cy="139" r="2" style="fill:#000" class="net_18"/>
  <line x1="177" x2="187" y1="139" y2="139" class="net_18"/>
  <line x1="40" x2="187" y1="259" y2="259" class="net_18"/>
  <line x1="40" x2="52" y1="259" y2="259" class="net_18"/>
  <line x1="52" x2="52" y1="259" y2="494" class="net_18"/>
  <circle cx="52" cy="259" r="2" style="fill:#000" class="net_18"/>
  <line x1="52" x2="77" y1="494" y2="494" class="net_18"/>
  <line x1="40" x2="177" y1="259" y2="259" class="net_18"/>
  <line x1="177" x2="177" y1="259" y2="334" class="net_18"/>
  <circle cx="177" cy="334" r="2" style="fill:#000" class="net_18"/>
  <line x1="177" x2="187" y1="334" y2="334" class="net_18"/>
  <line x1="40" x2="177" y1="259" y2="259" class="net_18"/>
  <line x1="177" x2="177" y1="259" y2="379" class="net_18"/>
  <circle cx="177" cy="379" r="2" style="fill:#000" class="net_18"/>
  <line x1="177" x2="187" y1="379" y2="379" class="net_18"/>
  <line x1="40" x2="177" y1="259" y2="259" class="net_18"/>
  <line x1="177" x2="177" y1="259" y2="439" class="net_18"/>
  <line x1="177" x2="187" y1="439" y2="439" class="net_18"/>
  <line x1="40" x2="177" y1="259" y2="259" class="net_18"/>
  <line x1="177" x2="177" y1="259" y2="199" class="net_18"/>
  <circle cx="177" cy="199" r="2" style="fill:#000" class="net_18"/>
  <line x1="177" x2="187" y1="199" y2="199" class="net_18"/>
  <line x1="97.92857142857143" x2="97.92857142857143" y1="54" y2="32" class="net_14"/>
  <line x1="97.92857142857143" x2="187" y1="32" y2="32" class="net_14"/>
  <line x1="98.42857142857143" x2="117" y1="694" y2="694" class="net_6"/>
  <line x1="117" x2="117" y1="694" y2="574" class="net_6"/>
  <line x1="117" x2="187" y1="574" y2="574" class="net_6"/>
  <line x1="217" x2="297" y1="24.5" y2="24.5" class="net_30"/>
  <line x1="297" x2="297" y1="24.5" y2="551.5" class="net_30"/>
  <line x1="297" x2="310" y1="551.5" y2="551.5" class="net_30"/>
  <line x1="217" x2="310" y1="566.5" y2="566.5" class="net_31"/>
  <line x1="98.42857142857143" x2="167" y1="74.5" y2="74.5" class="net_15"/>
  <line x1="167" x2="167" y1="74.5" y2="94" class="net_15"/>
  <line x1="167" x2="187" y1="94" y2="94" class="net_15"/>
  <line x1="98.42857142857143" x2="127" y1="714" y2="714" class="net_7"/>
  <line x1="127" x2="127" y1="714" y2="634" class="net_7"/>
  <line x1="127" x2="187" y1="634" y2="634" class="net_7"/>
  <line x1="217" x2="277" y1="86.5" y2="86.5" class="net_32"/>
  <line x1="277" x2="277" y1="86.5" y2="611.5" class="net_32"/>
  <line x1="277" x2="310" y1="611.5" y2="611.5" class="net_32"/>
  <line x1="217" x2="310" y1="626.5" y2="626.5" class="net_33"/>
  <line x1="98.42857142857143" x2="157" y1="94.5" y2="94.5" class="net_16"/>
  <line x1="157" x2="157" y1="94.5" y2="154" class="net_16"/>
  <line x1="157" x2="187" y1="154" y2="154" class="net_16"/>
  <line x1="98.42857142857143" x2="137" y1="734" y2="734" class="net_8"/>
  <line x1="137" x2="137" y1="734" y2="694" class="net_8"/>
  <line x1="137" x2="187" y1="694" y2="694" class="net_8"/>
  <line x1="217" x2="267" y1="146.5" y2="146.5" class="net_34"/>
  <line x1="267" x2="267" y1="146.5" y2="671.5" class="net_34"/>
  <line x1="267" x2="310" y1="671.5" y2="671.5" class="net_34"/>
  <line x1="217" x2="310" y1="686.5" y2="686.5" class="net_35"/>
  <line x1="98.42857142857143" x2="147" y1="114.5" y2="114.5" class="net_17"/>
  <line x1="147" x2="147" y1="114.5" y2="274" class="net_17"/>
  <line x1="147" x2="187" y1="274" y2="274" class="net_17"/>
  <line x1="98.42857142857143" x2="187" y1="754" y2="754" class="net_9"/>
  <line x1="217" x2="257" y1="266.5" y2="266.5" class="net_36"/>
  <line x1="257" x2="257" y1="266.5" y2="731.5" class="net_36"/>
  <line x1="257" x2="310" y1="731.5" y2="731.5" class="net_36"/>
  <line x1="217" x2="310" y1="746.5" y2="746.5" class="net_37"/>
  <line x1="98.42857142857143" x2="137" y1="134.5" y2="134.5" class="net_10"/>
  <line x1="137" x2="137" y1="134.5" y2="319" class="net_10"/>
  <line x1="137" x2="187" y1="319" y2="319" class="net_10"/>
  <line x1="98.42857142857143" x2="127" y1="774" y2="774" class="net_2"/>
  <line x1="127" x2="127" y1="774" y2="799" class="net_2"/>
  <line x1="127" x2="187" y1="799" y2="799" class="net_2"/>
  <line x1="217" x2="247" y1="326.5" y2="326.5" class="net_38"/>
  <line x1="247" x2="247" y1="326.5" y2="791.5" class="net_38"/>
  <line x1="247" x2="310" y1="791.5" y2="791.5" class="net_38"/>
  <line x1="217" x2="310" y1="806.5" y2="806.5" class="net_39"/>
  <line x1="98.42857142857143" x2="127" y1="154.5" y2="154.5" class="net_11"/>
  <line x1="127" x2="127" y1="154.5" y2="394" class="net_11"/>
  <line x1="127" x2="187" y1="394" y2="394" class="net_11"/>
  <line x1="98.42857142857143" x2="117" y1="794" y2="794" class="net_3"/>
  <line x1="117" x2="117" y1="794" y2="874" class="net_3"/>
  <line x1="117" x2="187" y1="874" y2="874" class="net_3"/>
  <line x1="217" x2="237" y1="386.5" y2="386.5" class="net_40"/>
  <line x1="237" x2="237" y1="386.5" y2="851.5" class="net_40"/>
  <line x1="237" x2="310" y1="851.5" y2="851.5" class="net_40"/>
  <line x1="217" x2="310" y1="866.5" y2="866.5" class="net_41"/>
  <line x1="98.42857142857143" x2="117" y1="174.5" y2="174.5" class="net_12"/>
  <line x1="117" x2="117" y1="174.5" y2="454" class="net_12"/>
  <line x1="117" x2="187" y1="454" y2="454" class="net_12"/>
  <line x1="97.92857142857143" x2="97.92857142857143" y1="814.5" y2="934" class="net_4"/>
  <line x1="97.92857142857143" x2="187" y1="934" y2="934" class="net_4"/>
  <line x1="217" x2="227" y1="446.5" y2="446.5" class="net_42"/>
  <line x1="227" x2="227" y1="446.5" y2="911.5" class="net_42"/>
  <line x1="227" x2="310" y1="911.5" y2="911.5" class="net_42"/>
  <line x1="217" x2="310" y1="926.5" y2="926.5" class="net_43"/>
  <line x1="97.92857142857143" x2="97.92857142857143" y1="195" y2="214" class="net_13"/>
  <line x1="97.92857142857143" x2="187" y1="214" y2="214" class="net_13"/>
  <line x1="413" x2="450" y1="889" y2="889" class="net_19,20,21,22,23,24,25,26"/>
  <line x1="337" x2="407.5" y1="799" y2="799" class="net_19"/>
  <line x1="407.5" x2="407.5" y1="799" y2="878.5" class="net_19"/>
  <line x1="337" x2="387" y1="859" y2="859" class="net_20"/>
  <line x1="387" x2="387" y1="859" y2="899" class="net_20"/>
  <line x1="387" x2="407" y1="899" y2="899" class="net_20"/>
  <line x1="337" x2="407" y1="919" y2="919" class="net_21"/>
  <line x1="337" x2="397" y1="499" y2="499" class="net_22"/>
  <line x1="397" x2="397" y1="499" y2="939" class="net_22"/>
  <line x1="397" x2="407" y1="939" y2="939" class="net_22"/>
  <line x1="337" x2="377" y1="559" y2="559" class="net_23"/>
  <line x1="377" x2="377" y1="559" y2="959" class="net_23"/>
  <line x1="377" x2="407" y1="959" y2="959" class="net_23"/>
  <line x1="337" x2="367" y1="619" y2="619" class="net_24"/>
  <line x1="367" x2="367" y1="619" y2="979" class="net_24"/>
  <line x1="367" x2="407" y1="979" y2="979" class="net_24"/>
  <line x1="337" x2="357" y1="679" y2="679" class="net_25"/>
  <line x1="357" x2="357" y1="679" y2="999" class="net_25"/>
  <line x1="357" x2="407" y1="999" y2="999" class="net_25"/>
  <line x1="337" x2="347" y1="739" y2="739" class="net_26"/>
  <line x1="347" x2="347" y1="739" y2="1038.5" class="net_26"/>
  <line x1="347" x2="407.5" y1="1038.5" y2="1038.5" class="net_26"/>
  <line x1="407.5" x2="407.5" y1="1038.5" y2="1019.5" class="net_26"/>
  <line x1="40" x2="93.42857142857143" y1="684" y2="684" class="net_2,3,4,5,6,7,8,9"/>
  <line x1="40" x2="93.42857142857143" y1="64.5" y2="64.5" class="net_10,11,12,13,14,15,16,17"/>
</svg>
